solid triangles
facet normal -1.000 0.000 0.000
outer loop
vertex -91.800 8.000 0.000
vertex -91.800 -8.000 0.000
vertex -91.800 -8.000 3.000
endloop
endfacet
facet normal -1.000 0.000 0.000
outer loop
vertex -91.800 -8.000 3.000
vertex -91.800 8.000 3.000
vertex -91.800 8.000 0.000
endloop
endfacet
facet normal 0.000 0.000 -1.000
outer loop
vertex -87.200 0.000 0.000
vertex -91.800 -8.000 0.000
vertex -91.800 8.000 0.000
endloop
endfacet
facet normal 0.000 0.000 -1.000
outer loop
vertex -91.800 8.000 3.000
vertex -87.200 0.000 3.000
vertex -91.800 -8.000 3.000
endloop
endfacet
facet normal 0.000 0.000 -1.000
outer loop
vertex -91.800 -8.000 0.000
vertex -87.200 0.000 0.000
vertex -86.949 -1.263 0.000
endloop
endfacet
facet normal 0.000 0.000 -1.000
outer loop
vertex -86.949 -1.263 3.000
vertex -91.800 -8.000 3.000
vertex -87.200 0.000 3.000
endloop
endfacet
facet normal 0.000 0.000 -1.000
outer loop
vertex -86.949 1.263 0.000
vertex -87.200 0.000 0.000
vertex -91.800 8.000 0.000
endloop
endfacet
facet normal 0.000 0.000 -1.000
outer loop
vertex -91.800 8.000 3.000
vertex -86.949 1.263 3.000
vertex -87.200 0.000 3.000
endloop
endfacet
facet normal 0.000 0.000 -1.000
outer loop
vertex -86.949 -1.263 0.000
vertex -86.233 -2.333 0.000
vertex -91.800 -8.000 0.000
endloop
endfacet
facet normal 0.000 0.000 -1.000
outer loop
vertex -91.800 -8.000 3.000
vertex -86.949 -1.263 3.000
vertex -86.233 -2.333 3.000
endloop
endfacet
facet normal 0.000 0.000 -1.000
outer loop
vertex -86.233 2.333 0.000
vertex -86.949 1.263 0.000
vertex -91.800 8.000 0.000
endloop
endfacet
facet normal 0.000 0.000 -1.000
outer loop
vertex -91.800 8.000 3.000
vertex -86.233 2.333 3.000
vertex -86.949 1.263 3.000
endloop
endfacet
facet normal 0.000 0.000 -1.000
outer loop
vertex -85.163 -3.049 0.000
vertex -91.800 -8.000 0.000
vertex -86.233 -2.333 0.000
endloop
endfacet
facet normal 0.000 0.000 -1.000
outer loop
vertex -86.233 -2.333 3.000
vertex -85.163 -3.049 3.000
vertex -91.800 -8.000 3.000
endloop
endfacet
facet normal 0.000 0.000 -1.000
outer loop
vertex -91.800 8.000 0.000
vertex -85.163 3.049 0.000
vertex -86.233 2.333 0.000
endloop
endfacet
facet normal 0.000 0.000 -1.000
outer loop
vertex -86.233 2.333 3.000
vertex -91.800 8.000 3.000
vertex -85.163 3.049 3.000
endloop
endfacet
facet normal -0.981 -0.195 0.000
outer loop
vertex -87.200 0.000 0.000
vertex -86.949 -1.263 3.000
vertex -87.200 0.000 3.000
endloop
endfacet
facet normal -0.981 0.195 0.000
outer loop
vertex -86.949 1.263 0.000
vertex -87.200 0.000 0.000
vertex -87.200 0.000 3.000
endloop
endfacet
facet normal -0.981 -0.195 0.000
outer loop
vertex -86.949 -1.263 3.000
vertex -87.200 0.000 0.000
vertex -86.949 -1.263 0.000
endloop
endfacet
facet normal -0.981 0.195 0.000
outer loop
vertex -86.949 1.263 3.000
vertex -86.949 1.263 0.000
vertex -87.200 0.000 3.000
endloop
endfacet
facet normal 0.000 0.000 -1.000
outer loop
vertex -83.900 -3.300 0.000
vertex -91.800 -8.000 0.000
vertex -85.163 -3.049 0.000
endloop
endfacet
facet normal 0.000 0.000 -1.000
outer loop
vertex -85.163 -3.049 3.000
vertex -83.900 -3.300 3.000
vertex -91.800 -8.000 3.000
endloop
endfacet
facet normal 0.000 0.000 -1.000
outer loop
vertex -85.163 3.049 0.000
vertex -91.800 8.000 0.000
vertex -83.900 3.300 0.000
endloop
endfacet
facet normal 0.000 0.000 -1.000
outer loop
vertex -83.900 3.300 3.000
vertex -85.163 3.049 3.000
vertex -91.800 8.000 3.000
endloop
endfacet
facet normal -0.831 -0.556 0.000
outer loop
vertex -86.949 -1.263 3.000
vertex -86.949 -1.263 0.000
vertex -86.233 -2.333 0.000
endloop
endfacet
facet normal -0.831 0.556 0.000
outer loop
vertex -86.949 1.263 3.000
vertex -86.233 2.333 0.000
vertex -86.949 1.263 0.000
endloop
endfacet
facet normal -0.831 -0.556 0.000
outer loop
vertex -86.233 -2.333 3.000
vertex -86.949 -1.263 3.000
vertex -86.233 -2.333 0.000
endloop
endfacet
facet normal -0.831 0.556 0.000
outer loop
vertex -86.233 2.333 0.000
vertex -86.949 1.263 3.000
vertex -86.233 2.333 3.000
endloop
endfacet
facet normal -0.556 -0.831 0.000
outer loop
vertex -86.233 -2.333 3.000
vertex -86.233 -2.333 0.000
vertex -85.163 -3.049 0.000
endloop
endfacet
facet normal -0.556 0.831 0.000
outer loop
vertex -86.233 2.333 3.000
vertex -85.163 3.049 0.000
vertex -86.233 2.333 0.000
endloop
endfacet
facet normal -0.556 -0.831 0.000
outer loop
vertex -85.163 -3.049 0.000
vertex -85.163 -3.049 3.000
vertex -86.233 -2.333 3.000
endloop
endfacet
facet normal -0.556 0.831 0.000
outer loop
vertex -86.233 2.333 3.000
vertex -85.163 3.049 3.000
vertex -85.163 3.049 0.000
endloop
endfacet
facet normal -0.195 -0.981 0.000
outer loop
vertex -83.900 -3.300 3.000
vertex -85.163 -3.049 3.000
vertex -85.163 -3.049 0.000
endloop
endfacet
facet normal -0.195 0.981 0.000
outer loop
vertex -85.163 3.049 3.000
vertex -83.900 3.300 0.000
vertex -85.163 3.049 0.000
endloop
endfacet
facet normal -0.195 -0.981 0.000
outer loop
vertex -83.900 -3.300 3.000
vertex -85.163 -3.049 0.000
vertex -83.900 -3.300 0.000
endloop
endfacet
facet normal -0.195 0.981 0.000
outer loop
vertex -83.900 3.300 0.000
vertex -85.163 3.049 3.000
vertex -83.900 3.300 3.000
endloop
endfacet
facet normal -0.195 0.981 0.000
outer loop
vertex -83.900 -3.300 0.000
vertex -83.900 -3.300 3.000
vertex -82.637 -3.049 3.000
endloop
endfacet
facet normal -0.195 -0.981 0.000
outer loop
vertex -83.900 3.300 3.000
vertex -83.900 3.300 0.000
vertex -82.637 3.049 0.000
endloop
endfacet
facet normal -0.195 0.981 0.000
outer loop
vertex -82.637 -3.049 3.000
vertex -82.637 -3.049 0.000
vertex -83.900 -3.300 0.000
endloop
endfacet
facet normal -0.195 -0.981 0.000
outer loop
vertex -83.900 3.300 3.000
vertex -82.637 3.049 0.000
vertex -82.637 3.049 3.000
endloop
endfacet
facet normal -0.556 0.831 0.000
outer loop
vertex -81.567 -2.333 3.000
vertex -82.637 -3.049 0.000
vertex -82.637 -3.049 3.000
endloop
endfacet
facet normal -0.556 -0.831 0.000
outer loop
vertex -82.637 3.049 3.000
vertex -82.637 3.049 0.000
vertex -81.567 2.333 0.000
endloop
endfacet
facet normal -0.556 0.831 0.000
outer loop
vertex -81.567 -2.333 3.000
vertex -81.567 -2.333 0.000
vertex -82.637 -3.049 0.000
endloop
endfacet
facet normal -0.556 -0.831 0.000
outer loop
vertex -81.567 2.333 0.000
vertex -81.567 2.333 3.000
vertex -82.637 3.049 3.000
endloop
endfacet
facet normal -0.831 0.556 0.000
outer loop
vertex -81.567 -2.333 0.000
vertex -81.567 -2.333 3.000
vertex -80.851 -1.263 3.000
endloop
endfacet
facet normal -0.831 -0.556 0.000
outer loop
vertex -81.567 2.333 3.000
vertex -81.567 2.333 0.000
vertex -80.851 1.263 0.000
endloop
endfacet
facet normal -0.831 0.556 0.000
outer loop
vertex -80.851 -1.263 3.000
vertex -80.851 -1.263 0.000
vertex -81.567 -2.333 0.000
endloop
endfacet
facet normal -0.831 -0.556 0.000
outer loop
vertex -81.567 2.333 3.000
vertex -80.851 1.263 0.000
vertex -80.851 1.263 3.000
endloop
endfacet
facet normal -0.981 0.195 0.000
outer loop
vertex -80.851 -1.263 0.000
vertex -80.851 -1.263 3.000
vertex -80.600 0.000 3.000
endloop
endfacet
facet normal -0.981 -0.195 0.000
outer loop
vertex -80.851 1.263 0.000
vertex -80.600 0.000 3.000
vertex -80.851 1.263 3.000
endloop
endfacet
facet normal -0.981 0.195 0.000
outer loop
vertex -80.851 -1.263 0.000
vertex -80.600 0.000 3.000
vertex -80.600 0.000 0.000
endloop
endfacet
facet normal -0.981 -0.195 0.000
outer loop
vertex -80.600 0.000 3.000
vertex -80.851 1.263 0.000
vertex -80.600 0.000 0.000
endloop
endfacet
facet normal 0.000 0.000 -1.000
outer loop
vertex 0.000 -3.300 0.000
vertex -91.800 -8.000 0.000
vertex -83.900 -3.300 0.000
endloop
endfacet
facet normal 0.000 0.000 -1.000
outer loop
vertex -83.900 -3.300 3.000
vertex 0.000 -3.300 3.000
vertex -91.800 -8.000 3.000
endloop
endfacet
facet normal 0.000 0.000 -1.000
outer loop
vertex -83.900 3.300 0.000
vertex -91.800 8.000 0.000
vertex 0.000 3.300 0.000
endloop
endfacet
facet normal 0.000 0.000 -1.000
outer loop
vertex 0.000 3.300 3.000
vertex -83.900 3.300 3.000
vertex -91.800 8.000 3.000
endloop
endfacet
facet normal 0.000 0.000 -1.000
outer loop
vertex -1.263 -3.049 0.000
vertex -83.900 -3.300 0.000
vertex -82.637 -3.049 0.000
endloop
endfacet
facet normal 0.000 0.000 -1.000
outer loop
vertex -82.637 -3.049 3.000
vertex -1.263 -3.049 3.000
vertex -83.900 -3.300 3.000
endloop
endfacet
facet normal 0.000 0.000 -1.000
outer loop
vertex -82.637 -3.049 0.000
vertex -81.567 -2.333 0.000
vertex -2.333 -2.333 0.000
endloop
endfacet
facet normal 0.000 0.000 -1.000
outer loop
vertex -2.333 -2.333 3.000
vertex -82.637 -3.049 3.000
vertex -81.567 -2.333 3.000
endloop
endfacet
facet normal 0.000 0.000 -1.000
outer loop
vertex -83.900 3.300 0.000
vertex 0.000 3.300 0.000
vertex -82.637 3.049 0.000
endloop
endfacet
facet normal 0.000 0.000 -1.000
outer loop
vertex -82.637 3.049 3.000
vertex -83.900 3.300 3.000
vertex 0.000 3.300 3.000
endloop
endfacet
facet normal 0.000 0.000 -1.000
outer loop
vertex -80.851 -1.263 0.000
vertex -3.049 -1.263 0.000
vertex -81.567 -2.333 0.000
endloop
endfacet
facet normal 0.000 0.000 -1.000
outer loop
vertex -81.567 -2.333 3.000
vertex -80.851 -1.263 3.000
vertex -3.049 -1.263 3.000
endloop
endfacet
facet normal 0.000 0.000 -1.000
outer loop
vertex -82.637 3.049 0.000
vertex -1.263 3.049 0.000
vertex -81.567 2.333 0.000
endloop
endfacet
facet normal 0.000 0.000 -1.000
outer loop
vertex -81.567 2.333 3.000
vertex -82.637 3.049 3.000
vertex -1.263 3.049 3.000
endloop
endfacet
facet normal 0.000 0.000 -1.000
outer loop
vertex -3.300 0.000 0.000
vertex -80.851 -1.263 0.000
vertex -80.600 0.000 0.000
endloop
endfacet
facet normal 0.000 0.000 -1.000
outer loop
vertex -80.600 0.000 3.000
vertex -3.300 0.000 3.000
vertex -80.851 -1.263 3.000
endloop
endfacet
facet normal 0.000 0.000 -1.000
outer loop
vertex -2.333 2.333 0.000
vertex -80.851 1.263 0.000
vertex -81.567 2.333 0.000
endloop
endfacet
facet normal 0.000 0.000 -1.000
outer loop
vertex -81.567 2.333 3.000
vertex -2.333 2.333 3.000
vertex -80.851 1.263 3.000
endloop
endfacet
facet normal 0.000 0.000 -1.000
outer loop
vertex -3.049 1.263 0.000
vertex -80.600 0.000 0.000
vertex -80.851 1.263 0.000
endloop
endfacet
facet normal 0.000 0.000 -1.000
outer loop
vertex -80.851 1.263 3.000
vertex -3.049 1.263 3.000
vertex -80.600 0.000 3.000
endloop
endfacet
facet normal 0.000 -1.000 0.000
outer loop
vertex 38.200 -8.000 3.000
vertex -91.800 -8.000 3.000
vertex -91.800 -8.000 0.000
endloop
endfacet
facet normal 0.000 1.000 0.000
outer loop
vertex 38.200 8.000 0.000
vertex -91.800 8.000 0.000
vertex -91.800 8.000 3.000
endloop
endfacet
facet normal 0.000 0.000 -1.000
outer loop
vertex -80.851 -1.263 0.000
vertex -3.300 0.000 0.000
vertex -3.049 -1.263 0.000
endloop
endfacet
facet normal 0.000 0.000 -1.000
outer loop
vertex -3.049 -1.263 3.000
vertex -80.851 -1.263 3.000
vertex -3.300 0.000 3.000
endloop
endfacet
facet normal 0.000 0.000 -1.000
outer loop
vertex -3.300 0.000 0.000
vertex -80.600 0.000 0.000
vertex -3.049 1.263 0.000
endloop
endfacet
facet normal 0.000 0.000 -1.000
outer loop
vertex -3.049 1.263 3.000
vertex -3.300 0.000 3.000
vertex -80.600 0.000 3.000
endloop
endfacet
facet normal 0.000 0.000 -1.000
outer loop
vertex -81.567 -2.333 0.000
vertex -3.049 -1.263 0.000
vertex -2.333 -2.333 0.000
endloop
endfacet
facet normal 0.000 0.000 -1.000
outer loop
vertex -2.333 -2.333 3.000
vertex -81.567 -2.333 3.000
vertex -3.049 -1.263 3.000
endloop
endfacet
facet normal 0.000 0.000 -1.000
outer loop
vertex -2.333 -2.333 0.000
vertex -1.263 -3.049 0.000
vertex -82.637 -3.049 0.000
endloop
endfacet
facet normal 0.000 0.000 -1.000
outer loop
vertex -82.637 -3.049 3.000
vertex -2.333 -2.333 3.000
vertex -1.263 -3.049 3.000
endloop
endfacet
facet normal 0.000 0.000 -1.000
outer loop
vertex -2.333 2.333 0.000
vertex -3.049 1.263 0.000
vertex -80.851 1.263 0.000
endloop
endfacet
facet normal 0.000 0.000 -1.000
outer loop
vertex -80.851 1.263 3.000
vertex -2.333 2.333 3.000
vertex -3.049 1.263 3.000
endloop
endfacet
facet normal 0.000 0.000 -1.000
outer loop
vertex -1.263 -3.049 0.000
vertex 0.000 -3.300 0.000
vertex -83.900 -3.300 0.000
endloop
endfacet
facet normal 0.000 0.000 -1.000
outer loop
vertex -83.900 -3.300 3.000
vertex -1.263 -3.049 3.000
vertex 0.000 -3.300 3.000
endloop
endfacet
facet normal 0.000 0.000 -1.000
outer loop
vertex -81.567 2.333 0.000
vertex -1.263 3.049 0.000
vertex -2.333 2.333 0.000
endloop
endfacet
facet normal 0.000 0.000 -1.000
outer loop
vertex -2.333 2.333 3.000
vertex -81.567 2.333 3.000
vertex -1.263 3.049 3.000
endloop
endfacet
facet normal 0.000 0.000 -1.000
outer loop
vertex -82.637 3.049 0.000
vertex 0.000 3.300 0.000
vertex -1.263 3.049 0.000
endloop
endfacet
facet normal 0.000 0.000 -1.000
outer loop
vertex -1.263 3.049 3.000
vertex -82.637 3.049 3.000
vertex 0.000 3.300 3.000
endloop
endfacet
facet normal 0.000 0.000 -1.000
outer loop
vertex 38.200 -8.000 0.000
vertex -91.800 -8.000 0.000
vertex 0.000 -3.300 0.000
endloop
endfacet
facet normal 0.000 0.000 -1.000
outer loop
vertex 0.000 -3.300 3.000
vertex 38.200 -8.000 3.000
vertex -91.800 -8.000 3.000
endloop
endfacet
facet normal 0.000 0.000 -1.000
outer loop
vertex 0.000 3.300 0.000
vertex -91.800 8.000 0.000
vertex 38.200 8.000 0.000
endloop
endfacet
facet normal 0.000 0.000 -1.000
outer loop
vertex 38.200 8.000 3.000
vertex 0.000 3.300 3.000
vertex -91.800 8.000 3.000
endloop
endfacet
facet normal 0.000 -1.000 0.000
outer loop
vertex -91.800 -8.000 0.000
vertex 38.200 -8.000 0.000
vertex 38.200 -8.000 3.000
endloop
endfacet
facet normal 0.000 1.000 0.000
outer loop
vertex -91.800 8.000 3.000
vertex 38.200 8.000 3.000
vertex 38.200 8.000 0.000
endloop
endfacet
facet normal 0.981 0.195 0.000
outer loop
vertex -3.300 0.000 0.000
vertex -3.300 0.000 3.000
vertex -3.049 -1.263 3.000
endloop
endfacet
facet normal 0.981 -0.195 0.000
outer loop
vertex -3.049 1.263 3.000
vertex -3.300 0.000 3.000
vertex -3.300 0.000 0.000
endloop
endfacet
facet normal 0.981 0.195 0.000
outer loop
vertex -3.049 -1.263 3.000
vertex -3.049 -1.263 0.000
vertex -3.300 0.000 0.000
endloop
endfacet
facet normal 0.981 -0.195 0.000
outer loop
vertex -3.049 1.263 3.000
vertex -3.300 0.000 0.000
vertex -3.049 1.263 0.000
endloop
endfacet
facet normal 0.831 0.556 0.000
outer loop
vertex -2.333 -2.333 3.000
vertex -3.049 -1.263 0.000
vertex -3.049 -1.263 3.000
endloop
endfacet
facet normal 0.831 -0.556 0.000
outer loop
vertex -3.049 1.263 3.000
vertex -3.049 1.263 0.000
vertex -2.333 2.333 0.000
endloop
endfacet
facet normal 0.831 0.556 0.000
outer loop
vertex -2.333 -2.333 3.000
vertex -2.333 -2.333 0.000
vertex -3.049 -1.263 0.000
endloop
endfacet
facet normal 0.831 -0.556 0.000
outer loop
vertex -2.333 2.333 0.000
vertex -2.333 2.333 3.000
vertex -3.049 1.263 3.000
endloop
endfacet
facet normal 0.556 0.831 0.000
outer loop
vertex -2.333 -2.333 0.000
vertex -2.333 -2.333 3.000
vertex -1.263 -3.049 3.000
endloop
endfacet
facet normal 0.556 -0.831 0.000
outer loop
vertex -2.333 2.333 3.000
vertex -2.333 2.333 0.000
vertex -1.263 3.049 0.000
endloop
endfacet
facet normal 0.556 0.831 0.000
outer loop
vertex -1.263 -3.049 3.000
vertex -1.263 -3.049 0.000
vertex -2.333 -2.333 0.000
endloop
endfacet
facet normal 0.556 -0.831 0.000
outer loop
vertex -2.333 2.333 3.000
vertex -1.263 3.049 0.000
vertex -1.263 3.049 3.000
endloop
endfacet
facet normal 0.195 0.981 0.000
outer loop
vertex 0.000 -3.300 3.000
vertex -1.263 -3.049 0.000
vertex -1.263 -3.049 3.000
endloop
endfacet
facet normal 0.195 -0.981 0.000
outer loop
vertex -1.263 3.049 3.000
vertex -1.263 3.049 0.000
vertex 0.000 3.300 0.000
endloop
endfacet
facet normal 0.195 0.981 0.000
outer loop
vertex 0.000 -3.300 3.000
vertex 0.000 -3.300 0.000
vertex -1.263 -3.049 0.000
endloop
endfacet
facet normal 0.195 -0.981 0.000
outer loop
vertex 0.000 3.300 0.000
vertex 0.000 3.300 3.000
vertex -1.263 3.049 3.000
endloop
endfacet
facet normal 0.195 -0.981 0.000
outer loop
vertex 0.000 -3.300 0.000
vertex 1.263 -3.049 3.000
vertex 0.000 -3.300 3.000
endloop
endfacet
facet normal 0.195 0.981 0.000
outer loop
vertex 0.000 3.300 3.000
vertex 1.263 3.049 0.000
vertex 0.000 3.300 0.000
endloop
endfacet
facet normal 0.195 -0.981 0.000
outer loop
vertex 1.263 -3.049 3.000
vertex 0.000 -3.300 0.000
vertex 1.263 -3.049 0.000
endloop
endfacet
facet normal 0.195 0.981 0.000
outer loop
vertex 0.000 3.300 3.000
vertex 1.263 3.049 3.000
vertex 1.263 3.049 0.000
endloop
endfacet
facet normal 0.556 -0.831 0.000
outer loop
vertex 2.333 -2.333 3.000
vertex 1.263 -3.049 3.000
vertex 1.263 -3.049 0.000
endloop
endfacet
facet normal 0.556 0.831 0.000
outer loop
vertex 1.263 3.049 3.000
vertex 2.333 2.333 0.000
vertex 1.263 3.049 0.000
endloop
endfacet
facet normal 0.556 -0.831 0.000
outer loop
vertex 2.333 -2.333 3.000
vertex 1.263 -3.049 0.000
vertex 2.333 -2.333 0.000
endloop
endfacet
facet normal 0.556 0.831 0.000
outer loop
vertex 2.333 2.333 0.000
vertex 1.263 3.049 3.000
vertex 2.333 2.333 3.000
endloop
endfacet
facet normal 0.831 -0.556 0.000
outer loop
vertex 2.333 -2.333 0.000
vertex 3.049 -1.263 3.000
vertex 2.333 -2.333 3.000
endloop
endfacet
facet normal 0.831 0.556 0.000
outer loop
vertex 2.333 2.333 3.000
vertex 3.049 1.263 0.000
vertex 2.333 2.333 0.000
endloop
endfacet
facet normal 0.831 -0.556 0.000
outer loop
vertex 3.049 -1.263 3.000
vertex 2.333 -2.333 0.000
vertex 3.049 -1.263 0.000
endloop
endfacet
facet normal 0.831 0.556 0.000
outer loop
vertex 2.333 2.333 3.000
vertex 3.049 1.263 3.000
vertex 3.049 1.263 0.000
endloop
endfacet
facet normal 0.981 -0.195 0.000
outer loop
vertex 3.049 -1.263 0.000
vertex 3.300 0.000 3.000
vertex 3.049 -1.263 3.000
endloop
endfacet
facet normal 0.981 0.195 0.000
outer loop
vertex 3.049 1.263 0.000
vertex 3.049 1.263 3.000
vertex 3.300 0.000 3.000
endloop
endfacet
facet normal 0.981 -0.195 0.000
outer loop
vertex 3.049 -1.263 0.000
vertex 3.300 0.000 0.000
vertex 3.300 0.000 3.000
endloop
endfacet
facet normal 0.981 0.195 0.000
outer loop
vertex 3.300 0.000 3.000
vertex 3.300 0.000 0.000
vertex 3.049 1.263 0.000
endloop
endfacet
facet normal 0.000 0.000 -1.000
outer loop
vertex 2.333 -2.333 0.000
vertex 23.200 -1.500 0.000
vertex 1.263 -3.049 0.000
endloop
endfacet
facet normal 0.000 0.000 -1.000
outer loop
vertex 1.263 -3.049 3.000
vertex 2.333 -2.333 3.000
vertex 23.200 -1.500 3.000
endloop
endfacet
facet normal 0.000 0.000 -1.000
outer loop
vertex 1.263 3.049 0.000
vertex 23.200 1.500 0.000
vertex 2.333 2.333 0.000
endloop
endfacet
facet normal 0.000 0.000 -1.000
outer loop
vertex 2.333 2.333 3.000
vertex 1.263 3.049 3.000
vertex 23.200 1.500 3.000
endloop
endfacet
facet normal 0.000 0.000 -1.000
outer loop
vertex 22.626 -1.386 0.000
vertex 2.333 -2.333 0.000
vertex 3.049 -1.263 0.000
endloop
endfacet
facet normal 0.000 0.000 -1.000
outer loop
vertex 3.049 -1.263 3.000
vertex 22.626 -1.386 3.000
vertex 2.333 -2.333 3.000
endloop
endfacet
facet normal 0.000 0.000 -1.000
outer loop
vertex 3.049 1.263 0.000
vertex 2.333 2.333 0.000
vertex 22.626 1.386 0.000
endloop
endfacet
facet normal 0.000 0.000 -1.000
outer loop
vertex 22.626 1.386 3.000
vertex 3.049 1.263 3.000
vertex 2.333 2.333 3.000
endloop
endfacet
facet normal 0.000 0.000 -1.000
outer loop
vertex 3.300 0.000 0.000
vertex 21.814 -0.574 0.000
vertex 3.049 -1.263 0.000
endloop
endfacet
facet normal 0.000 0.000 -1.000
outer loop
vertex 3.049 -1.263 3.000
vertex 3.300 0.000 3.000
vertex 21.814 -0.574 3.000
endloop
endfacet
facet normal 0.000 0.000 -1.000
outer loop
vertex 21.814 0.574 0.000
vertex 3.300 0.000 0.000
vertex 3.049 1.263 0.000
endloop
endfacet
facet normal 0.000 0.000 -1.000
outer loop
vertex 1.263 -3.049 0.000
vertex 38.200 -8.000 0.000
vertex 0.000 -3.300 0.000
endloop
endfacet
facet normal 0.000 0.000 -1.000
outer loop
vertex 38.200 8.000 0.000
vertex 1.263 3.049 0.000
vertex 0.000 3.300 0.000
endloop
endfacet
facet normal 0.000 0.000 -1.000
outer loop
vertex 3.300 0.000 0.000
vertex 21.700 0.000 0.000
vertex 21.814 -0.574 0.000
endloop
endfacet
facet normal 0.000 0.000 -1.000
outer loop
vertex 21.814 0.574 0.000
vertex 21.700 0.000 0.000
vertex 3.300 0.000 0.000
endloop
endfacet
facet normal 0.000 0.000 -1.000
outer loop
vertex 3.049 -1.263 0.000
vertex 21.814 -0.574 0.000
vertex 22.139 -1.061 0.000
endloop
endfacet
facet normal 0.000 0.000 -1.000
outer loop
vertex 3.049 1.263 0.000
vertex 22.139 1.061 0.000
vertex 21.814 0.574 0.000
endloop
endfacet
facet normal 0.000 0.000 -1.000
outer loop
vertex 22.139 -1.061 0.000
vertex 22.626 -1.386 0.000
vertex 3.049 -1.263 0.000
endloop
endfacet
facet normal 0.000 0.000 -1.000
outer loop
vertex 22.626 1.386 0.000
vertex 22.139 1.061 0.000
vertex 3.049 1.263 0.000
endloop
endfacet
facet normal 0.000 0.000 -1.000
outer loop
vertex 2.333 -2.333 0.000
vertex 22.626 -1.386 0.000
vertex 23.200 -1.500 0.000
endloop
endfacet
facet normal 0.000 0.000 -1.000
outer loop
vertex 2.333 2.333 0.000
vertex 23.200 1.500 0.000
vertex 22.626 1.386 0.000
endloop
endfacet
facet normal 0.000 0.000 -1.000
outer loop
vertex 23.200 -1.500 0.000
vertex 38.200 -8.000 0.000
vertex 1.263 -3.049 0.000
endloop
endfacet
facet normal 0.000 0.000 -1.000
outer loop
vertex 1.263 3.049 0.000
vertex 38.200 8.000 0.000
vertex 23.200 1.500 0.000
endloop
endfacet
facet normal 0.000 0.000 -1.000
outer loop
vertex 3.049 1.263 3.000
vertex 21.814 0.574 3.000
vertex 3.300 0.000 3.000
endloop
endfacet
facet normal 0.000 0.000 -1.000
outer loop
vertex 0.000 -3.300 3.000
vertex 1.263 -3.049 3.000
vertex 38.200 -8.000 3.000
endloop
endfacet
facet normal 0.000 0.000 -1.000
outer loop
vertex 0.000 3.300 3.000
vertex 38.200 8.000 3.000
vertex 1.263 3.049 3.000
endloop
endfacet
facet normal 0.000 0.000 -1.000
outer loop
vertex 21.814 -0.574 3.000
vertex 3.300 0.000 3.000
vertex 21.700 0.000 3.000
endloop
endfacet
facet normal 0.000 0.000 -1.000
outer loop
vertex 3.300 0.000 3.000
vertex 21.814 0.574 3.000
vertex 21.700 0.000 3.000
endloop
endfacet
facet normal 0.000 0.000 -1.000
outer loop
vertex 22.139 -1.061 3.000
vertex 3.049 -1.263 3.000
vertex 21.814 -0.574 3.000
endloop
endfacet
facet normal 0.000 0.000 -1.000
outer loop
vertex 21.814 0.574 3.000
vertex 3.049 1.263 3.000
vertex 22.139 1.061 3.000
endloop
endfacet
facet normal 0.000 0.000 -1.000
outer loop
vertex 3.049 -1.263 3.000
vertex 22.139 -1.061 3.000
vertex 22.626 -1.386 3.000
endloop
endfacet
facet normal 0.000 0.000 -1.000
outer loop
vertex 3.049 1.263 3.000
vertex 22.626 1.386 3.000
vertex 22.139 1.061 3.000
endloop
endfacet
facet normal 0.000 0.000 -1.000
outer loop
vertex 23.200 -1.500 3.000
vertex 2.333 -2.333 3.000
vertex 22.626 -1.386 3.000
endloop
endfacet
facet normal 0.000 0.000 -1.000
outer loop
vertex 22.626 1.386 3.000
vertex 2.333 2.333 3.000
vertex 23.200 1.500 3.000
endloop
endfacet
facet normal 0.000 0.000 -1.000
outer loop
vertex 1.263 -3.049 3.000
vertex 23.200 -1.500 3.000
vertex 38.200 -8.000 3.000
endloop
endfacet
facet normal 0.000 0.000 -1.000
outer loop
vertex 23.200 1.500 3.000
vertex 1.263 3.049 3.000
vertex 38.200 8.000 3.000
endloop
endfacet
facet normal 0.981 0.195 0.000
outer loop
vertex 21.700 0.000 0.000
vertex 21.700 0.000 3.000
vertex 21.814 -0.574 3.000
endloop
endfacet
facet normal 0.981 -0.195 0.000
outer loop
vertex 21.814 0.574 0.000
vertex 21.700 0.000 3.000
vertex 21.700 0.000 0.000
endloop
endfacet
facet normal 0.981 0.195 0.000
outer loop
vertex 21.814 -0.574 3.000
vertex 21.814 -0.574 0.000
vertex 21.700 0.000 0.000
endloop
endfacet
facet normal 0.981 -0.195 0.000
outer loop
vertex 21.814 0.574 3.000
vertex 21.700 0.000 3.000
vertex 21.814 0.574 0.000
endloop
endfacet
facet normal 0.831 0.556 0.000
outer loop
vertex 22.139 -1.061 3.000
vertex 21.814 -0.574 0.000
vertex 21.814 -0.574 3.000
endloop
endfacet
facet normal 0.831 -0.556 0.000
outer loop
vertex 21.814 0.574 3.000
vertex 21.814 0.574 0.000
vertex 22.139 1.061 0.000
endloop
endfacet
facet normal 0.831 0.556 0.000
outer loop
vertex 22.139 -1.061 3.000
vertex 22.139 -1.061 0.000
vertex 21.814 -0.574 0.000
endloop
endfacet
facet normal 0.831 -0.556 0.000
outer loop
vertex 22.139 1.061 0.000
vertex 22.139 1.061 3.000
vertex 21.814 0.574 3.000
endloop
endfacet
facet normal 0.556 0.831 0.000
outer loop
vertex 22.139 -1.061 0.000
vertex 22.139 -1.061 3.000
vertex 22.626 -1.386 3.000
endloop
endfacet
facet normal 0.556 -0.831 0.000
outer loop
vertex 22.139 1.061 3.000
vertex 22.139 1.061 0.000
vertex 22.626 1.386 0.000
endloop
endfacet
facet normal 0.556 0.831 0.000
outer loop
vertex 22.626 -1.386 3.000
vertex 22.626 -1.386 0.000
vertex 22.139 -1.061 0.000
endloop
endfacet
facet normal 0.556 -0.831 0.000
outer loop
vertex 22.139 1.061 3.000
vertex 22.626 1.386 0.000
vertex 22.626 1.386 3.000
endloop
endfacet
facet normal 0.195 0.981 0.000
outer loop
vertex 23.200 -1.500 3.000
vertex 22.626 -1.386 0.000
vertex 22.626 -1.386 3.000
endloop
endfacet
facet normal 0.195 -0.981 0.000
outer loop
vertex 22.626 1.386 3.000
vertex 22.626 1.386 0.000
vertex 23.200 1.500 0.000
endloop
endfacet
facet normal 0.195 0.981 0.000
outer loop
vertex 23.200 -1.500 3.000
vertex 23.200 -1.500 0.000
vertex 22.626 -1.386 0.000
endloop
endfacet
facet normal 0.195 -0.981 0.000
outer loop
vertex 23.200 1.500 0.000
vertex 23.200 1.500 3.000
vertex 22.626 1.386 3.000
endloop
endfacet
facet normal 0.195 -0.981 0.000
outer loop
vertex 23.200 -1.500 0.000
vertex 23.774 -1.386 3.000
vertex 23.200 -1.500 3.000
endloop
endfacet
facet normal 0.195 0.981 0.000
outer loop
vertex 23.200 1.500 3.000
vertex 23.774 1.386 0.000
vertex 23.200 1.500 0.000
endloop
endfacet
facet normal 0.195 -0.981 0.000
outer loop
vertex 23.774 -1.386 3.000
vertex 23.200 -1.500 0.000
vertex 23.774 -1.386 0.000
endloop
endfacet
facet normal 0.195 0.981 0.000
outer loop
vertex 23.200 1.500 3.000
vertex 23.774 1.386 3.000
vertex 23.774 1.386 0.000
endloop
endfacet
facet normal 0.556 -0.831 0.000
outer loop
vertex 24.261 -1.061 3.000
vertex 23.774 -1.386 3.000
vertex 23.774 -1.386 0.000
endloop
endfacet
facet normal 0.556 0.831 0.000
outer loop
vertex 23.774 1.386 3.000
vertex 24.261 1.061 0.000
vertex 23.774 1.386 0.000
endloop
endfacet
facet normal 0.556 -0.831 0.000
outer loop
vertex 24.261 -1.061 3.000
vertex 23.774 -1.386 0.000
vertex 24.261 -1.061 0.000
endloop
endfacet
facet normal 0.556 0.831 0.000
outer loop
vertex 24.261 1.061 0.000
vertex 23.774 1.386 3.000
vertex 24.261 1.061 3.000
endloop
endfacet
facet normal 0.831 -0.556 0.000
outer loop
vertex 24.261 -1.061 3.000
vertex 24.261 -1.061 0.000
vertex 24.586 -0.574 0.000
endloop
endfacet
facet normal 0.831 0.556 0.000
outer loop
vertex 24.261 1.061 3.000
vertex 24.586 0.574 0.000
vertex 24.261 1.061 0.000
endloop
endfacet
facet normal 0.831 -0.556 0.000
outer loop
vertex 24.586 -0.574 0.000
vertex 24.586 -0.574 3.000
vertex 24.261 -1.061 3.000
endloop
endfacet
facet normal 0.831 0.556 0.000
outer loop
vertex 24.261 1.061 3.000
vertex 24.586 0.574 3.000
vertex 24.586 0.574 0.000
endloop
endfacet
facet normal 0.981 -0.195 0.000
outer loop
vertex 24.586 -0.574 3.000
vertex 24.586 -0.574 0.000
vertex 24.700 0.000 0.000
endloop
endfacet
facet normal 0.981 0.195 0.000
outer loop
vertex 24.586 0.574 0.000
vertex 24.586 0.574 3.000
vertex 24.700 0.000 3.000
endloop
endfacet
facet normal 0.981 -0.195 0.000
outer loop
vertex 24.586 -0.574 3.000
vertex 24.700 0.000 0.000
vertex 24.700 0.000 3.000
endloop
endfacet
facet normal 0.981 0.195 0.000
outer loop
vertex 24.700 0.000 3.000
vertex 24.700 0.000 0.000
vertex 24.586 0.574 0.000
endloop
endfacet
facet normal 0.000 0.000 -1.000
outer loop
vertex 38.200 -8.000 0.000
vertex 23.200 -1.500 0.000
vertex 23.774 -1.386 0.000
endloop
endfacet
facet normal 0.000 0.000 -1.000
outer loop
vertex 23.774 -1.386 3.000
vertex 38.200 -8.000 3.000
vertex 23.200 -1.500 3.000
endloop
endfacet
facet normal 0.000 0.000 -1.000
outer loop
vertex 23.200 1.500 0.000
vertex 38.200 8.000 0.000
vertex 23.774 1.386 0.000
endloop
endfacet
facet normal 0.000 0.000 -1.000
outer loop
vertex 23.774 1.386 3.000
vertex 23.200 1.500 3.000
vertex 38.200 8.000 3.000
endloop
endfacet
facet normal 0.000 0.000 -1.000
outer loop
vertex 38.200 -8.000 0.000
vertex 23.774 -1.386 0.000
vertex 24.261 -1.061 0.000
endloop
endfacet
facet normal 0.000 0.000 -1.000
outer loop
vertex 24.261 -1.061 3.000
vertex 38.200 -8.000 3.000
vertex 23.774 -1.386 3.000
endloop
endfacet
facet normal 0.000 0.000 -1.000
outer loop
vertex 24.261 1.061 0.000
vertex 23.774 1.386 0.000
vertex 38.200 8.000 0.000
endloop
endfacet
facet normal 0.000 0.000 -1.000
outer loop
vertex 38.200 8.000 3.000
vertex 24.261 1.061 3.000
vertex 23.774 1.386 3.000
endloop
endfacet
facet normal 0.000 0.000 -1.000
outer loop
vertex 24.261 -1.061 0.000
vertex 24.586 -0.574 0.000
vertex 38.200 -8.000 0.000
endloop
endfacet
facet normal 0.000 0.000 -1.000
outer loop
vertex 38.200 -8.000 3.000
vertex 24.261 -1.061 3.000
vertex 24.586 -0.574 3.000
endloop
endfacet
facet normal 0.000 0.000 -1.000
outer loop
vertex 24.586 0.574 0.000
vertex 24.261 1.061 0.000
vertex 38.200 8.000 0.000
endloop
endfacet
facet normal 0.000 0.000 -1.000
outer loop
vertex 38.200 8.000 3.000
vertex 24.586 0.574 3.000
vertex 24.261 1.061 3.000
endloop
endfacet
facet normal 0.000 0.000 -1.000
outer loop
vertex 24.586 -0.574 0.000
vertex 24.700 0.000 0.000
vertex 38.200 -8.000 0.000
endloop
endfacet
facet normal 0.000 0.000 -1.000
outer loop
vertex 38.200 -8.000 3.000
vertex 24.586 -0.574 3.000
vertex 24.700 0.000 3.000
endloop
endfacet
facet normal 0.000 0.000 -1.000
outer loop
vertex 24.586 0.574 0.000
vertex 38.200 8.000 0.000
vertex 24.700 0.000 0.000
endloop
endfacet
facet normal 0.000 0.000 -1.000
outer loop
vertex 24.700 0.000 3.000
vertex 24.586 0.574 3.000
vertex 38.200 8.000 3.000
endloop
endfacet
facet normal 0.000 0.000 -1.000
outer loop
vertex 38.200 -8.000 0.000
vertex 24.700 0.000 0.000
vertex 38.200 8.000 0.000
endloop
endfacet
facet normal 0.000 0.000 -1.000
outer loop
vertex 38.200 8.000 3.000
vertex 38.200 -8.000 3.000
vertex 24.700 0.000 3.000
endloop
endfacet
facet normal 1.000 0.000 0.000
outer loop
vertex 38.200 8.000 3.000
vertex 38.200 -8.000 3.000
vertex 38.200 -8.000 0.000
endloop
endfacet
facet normal 1.000 0.000 0.000
outer loop
vertex 38.200 -8.000 0.000
vertex 38.200 8.000 0.000
vertex 38.200 8.000 3.000
endloop
endfacet
facet normal 0.983 0.000 0.183
outer loop
vertex 5.787 -7.500 3.627
vertex 5.715 7.500 4.014
vertex 5.715 -7.500 4.014
endloop
endfacet
facet normal 0.983 0.000 0.183
outer loop
vertex 5.715 7.500 4.014
vertex 5.787 -7.500 3.627
vertex 5.787 7.500 3.627
endloop
endfacet
facet normal 0.836 0.000 0.548
outer loop
vertex 5.787 7.500 3.627
vertex 5.787 -7.500 3.627
vertex 6.002 7.500 3.298
endloop
endfacet
facet normal 1.000 0.000 -0.014
outer loop
vertex 6.186 7.500 36.514
vertex 5.715 -7.500 4.014
vertex 5.715 7.500 4.014
endloop
endfacet
facet normal 0.836 0.000 0.548
outer loop
vertex 6.002 7.500 3.298
vertex 5.787 -7.500 3.627
vertex 6.002 -7.500 3.298
endloop
endfacet
facet normal 1.000 0.000 -0.014
outer loop
vertex 5.715 -7.500 4.014
vertex 6.186 7.500 36.514
vertex 6.186 -7.500 36.514
endloop
endfacet
facet normal 0.000 -1.000 0.000
outer loop
vertex 5.715 -7.500 4.014
vertex 5.787 -7.500 3.627
vertex 6.715 -7.500 3.000
endloop
endfacet
facet normal 0.000 1.000 0.000
outer loop
vertex 6.715 7.500 3.000
vertex 5.787 7.500 3.627
vertex 5.715 7.500 4.014
endloop
endfacet
facet normal 0.560 0.000 0.828
outer loop
vertex 6.002 7.500 3.298
vertex 6.002 -7.500 3.298
vertex 6.329 -7.500 3.078
endloop
endfacet
facet normal 0.000 -1.000 0.000
outer loop
vertex 5.787 -7.500 3.627
vertex 6.002 -7.500 3.298
vertex 6.715 -7.500 3.000
endloop
endfacet
facet normal 0.000 1.000 0.000
outer loop
vertex 6.715 7.500 3.000
vertex 6.002 7.500 3.298
vertex 5.787 7.500 3.627
endloop
endfacet
facet normal 0.978 0.000 -0.208
outer loop
vertex 6.266 7.500 36.893
vertex 6.186 -7.500 36.514
vertex 6.186 7.500 36.514
endloop
endfacet
facet normal 0.560 0.000 0.828
outer loop
vertex 6.002 7.500 3.298
vertex 6.329 -7.500 3.078
vertex 6.329 7.500 3.078
endloop
endfacet
facet normal 0.978 0.000 -0.208
outer loop
vertex 6.186 -7.500 36.514
vertex 6.266 7.500 36.893
vertex 6.266 -7.500 36.893
endloop
endfacet
facet normal 0.826 0.000 -0.563
outer loop
vertex 6.266 -7.500 36.893
vertex 6.266 7.500 36.893
vertex 6.484 7.500 37.212
endloop
endfacet
facet normal 0.000 -1.000 0.000
outer loop
vertex 6.002 -7.500 3.298
vertex 6.329 -7.500 3.078
vertex 6.715 -7.500 3.000
endloop
endfacet
facet normal 0.000 1.000 0.000
outer loop
vertex 6.715 7.500 3.000
vertex 6.329 7.500 3.078
vertex 6.002 7.500 3.298
endloop
endfacet
facet normal 0.826 0.000 -0.563
outer loop
vertex 6.484 -7.500 37.212
vertex 6.266 -7.500 36.893
vertex 6.484 7.500 37.212
endloop
endfacet
facet normal -0.197 0.000 -0.980
outer loop
vertex 6.329 7.500 3.078
vertex 6.715 -7.500 3.000
vertex 6.329 -7.500 3.078
endloop
endfacet
facet normal 0.000 -1.000 0.000
outer loop
vertex 6.266 -7.500 36.893
vertex 6.186 -7.500 36.514
vertex 7.186 -7.500 37.500
endloop
endfacet
facet normal 0.000 1.000 0.000
outer loop
vertex 7.186 7.500 37.500
vertex 6.186 7.500 36.514
vertex 6.266 7.500 36.893
endloop
endfacet
facet normal -0.197 0.000 -0.980
outer loop
vertex 6.329 7.500 3.078
vertex 6.715 7.500 3.000
vertex 6.715 -7.500 3.000
endloop
endfacet
facet normal 0.551 0.000 -0.834
outer loop
vertex 6.806 7.500 37.425
vertex 6.484 -7.500 37.212
vertex 6.484 7.500 37.212
endloop
endfacet
facet normal 0.000 -1.000 0.000
outer loop
vertex 7.186 -7.500 37.500
vertex 6.484 -7.500 37.212
vertex 6.266 -7.500 36.893
endloop
endfacet
facet normal 0.000 1.000 0.000
outer loop
vertex 6.266 7.500 36.893
vertex 6.484 7.500 37.212
vertex 7.186 7.500 37.500
endloop
endfacet
facet normal 0.551 0.000 -0.834
outer loop
vertex 6.806 7.500 37.425
vertex 6.806 -7.500 37.425
vertex 6.484 -7.500 37.212
endloop
endfacet
facet normal 0.000 -1.000 0.000
outer loop
vertex 6.484 -7.500 37.212
vertex 7.186 -7.500 37.500
vertex 6.806 -7.500 37.425
endloop
endfacet
facet normal 0.000 1.000 0.000
outer loop
vertex 6.806 7.500 37.425
vertex 7.186 7.500 37.500
vertex 6.484 7.500 37.212
endloop
endfacet
facet normal -0.193 0.000 0.981
outer loop
vertex 7.186 7.500 37.500
vertex 6.806 7.500 37.425
vertex 6.806 -7.500 37.425
endloop
endfacet
facet normal -0.193 0.000 0.981
outer loop
vertex 7.186 7.500 37.500
vertex 6.806 -7.500 37.425
vertex 7.186 -7.500 37.500
endloop
endfacet
facet normal 0.000 -1.000 0.000
outer loop
vertex 6.186 -7.500 36.514
vertex 5.715 -7.500 4.014
vertex 14.373 -7.500 22.744
endloop
endfacet
facet normal 0.000 1.000 0.000
outer loop
vertex 14.373 7.500 22.744
vertex 5.715 7.500 4.014
vertex 6.186 7.500 36.514
endloop
endfacet
facet normal 0.000 0.000 -1.000
outer loop
vertex 20.450 0.000 3.000
vertex 6.715 -7.500 3.000
vertex 6.715 7.500 3.000
endloop
endfacet
facet normal 0.000 0.000 -1.000
outer loop
vertex 6.715 -7.500 3.000
vertex 20.450 0.000 3.000
vertex 20.503 -0.536 3.000
endloop
endfacet
facet normal 0.000 0.000 -1.000
outer loop
vertex 20.503 0.537 3.000
vertex 20.450 0.000 3.000
vertex 6.715 7.500 3.000
endloop
endfacet
facet normal 0.000 0.000 -1.000
outer loop
vertex 20.503 -0.536 3.000
vertex 20.659 -1.052 3.000
vertex 6.715 -7.500 3.000
endloop
endfacet
facet normal 0.000 0.000 -1.000
outer loop
vertex 20.503 0.537 3.000
vertex 6.715 7.500 3.000
vertex 20.659 1.052 3.000
endloop
endfacet
facet normal 0.000 0.000 -1.000
outer loop
vertex 20.659 -1.052 3.000
vertex 20.913 -1.528 3.000
vertex 6.715 -7.500 3.000
endloop
endfacet
facet normal 0.000 0.000 -1.000
outer loop
vertex 20.913 1.528 3.000
vertex 20.659 1.052 3.000
vertex 6.715 7.500 3.000
endloop
endfacet
facet normal 0.000 0.000 -1.000
outer loop
vertex 20.913 -1.528 3.000
vertex 21.255 -1.945 3.000
vertex 6.715 -7.500 3.000
endloop
endfacet
facet normal 0.000 0.000 -1.000
outer loop
vertex 6.715 7.500 3.000
vertex 21.255 1.945 3.000
vertex 20.913 1.528 3.000
endloop
endfacet
facet normal 0.000 0.000 -1.000
outer loop
vertex 21.255 -1.945 3.000
vertex 21.672 -2.287 3.000
vertex 6.715 -7.500 3.000
endloop
endfacet
facet normal 0.000 0.000 -1.000
outer loop
vertex 21.255 1.945 3.000
vertex 6.715 7.500 3.000
vertex 21.672 2.287 3.000
endloop
endfacet
facet normal 0.000 0.000 -1.000
outer loop
vertex 22.148 -2.541 3.000
vertex 6.715 -7.500 3.000
vertex 21.672 -2.287 3.000
endloop
endfacet
facet normal 0.000 0.000 -1.000
outer loop
vertex 22.148 2.541 3.000
vertex 21.672 2.287 3.000
vertex 6.715 7.500 3.000
endloop
endfacet
facet normal 0.000 0.000 -1.000
outer loop
vertex 6.715 -7.500 3.000
vertex 22.148 -2.541 3.000
vertex 22.664 -2.697 3.000
endloop
endfacet
facet normal 0.000 0.000 -1.000
outer loop
vertex 22.664 2.697 3.000
vertex 22.148 2.541 3.000
vertex 6.715 7.500 3.000
endloop
endfacet
facet normal 0.000 0.000 -1.000
outer loop
vertex 22.664 -2.697 3.000
vertex 23.200 -2.750 3.000
vertex 6.715 -7.500 3.000
endloop
endfacet
facet normal 0.000 0.000 -1.000
outer loop
vertex 6.715 7.500 3.000
vertex 23.200 2.750 3.000
vertex 22.664 2.697 3.000
endloop
endfacet
facet normal 0.995 -0.098 0.000
outer loop
vertex 20.450 0.000 5.500
vertex 20.450 0.000 3.000
vertex 20.503 0.537 3.000
endloop
endfacet
facet normal 0.995 0.098 0.000
outer loop
vertex 20.503 -0.536 5.500
vertex 20.503 -0.536 3.000
vertex 20.450 0.000 3.000
endloop
endfacet
facet normal 0.957 -0.290 0.000
outer loop
vertex 20.503 0.537 5.500
vertex 20.503 0.537 3.000
vertex 20.659 1.052 3.000
endloop
endfacet
facet normal 0.957 0.290 0.000
outer loop
vertex 20.659 -1.052 5.500
vertex 20.659 -1.052 3.000
vertex 20.503 -0.536 3.000
endloop
endfacet
facet normal 0.882 -0.471 0.000
outer loop
vertex 20.659 1.052 5.500
vertex 20.659 1.052 3.000
vertex 20.913 1.528 3.000
endloop
endfacet
facet normal 0.882 0.471 0.000
outer loop
vertex 20.913 -1.528 5.500
vertex 20.913 -1.528 3.000
vertex 20.659 -1.052 3.000
endloop
endfacet
facet normal 0.995 0.098 0.000
outer loop
vertex 20.450 0.000 3.000
vertex 20.450 0.000 5.500
vertex 20.503 -0.536 5.500
endloop
endfacet
facet normal 0.995 -0.098 0.000
outer loop
vertex 20.450 0.000 5.500
vertex 20.503 0.537 3.000
vertex 20.503 0.537 5.500
endloop
endfacet
facet normal 0.957 0.290 0.000
outer loop
vertex 20.659 -1.052 5.500
vertex 20.503 -0.536 3.000
vertex 20.503 -0.536 5.500
endloop
endfacet
facet normal 0.957 -0.290 0.000
outer loop
vertex 20.659 1.052 3.000
vertex 20.659 1.052 5.500
vertex 20.503 0.537 5.500
endloop
endfacet
facet normal 0.882 0.471 0.000
outer loop
vertex 20.659 -1.052 3.000
vertex 20.659 -1.052 5.500
vertex 20.913 -1.528 5.500
endloop
endfacet
facet normal 0.882 -0.471 0.000
outer loop
vertex 20.659 1.052 5.500
vertex 20.913 1.528 3.000
vertex 20.913 1.528 5.500
endloop
endfacet
facet normal 0.000 0.000 -1.000
outer loop
vertex 20.450 0.000 5.500
vertex 18.296 -0.975 5.500
vertex 18.200 0.000 5.500
endloop
endfacet
facet normal 0.000 0.000 -1.000
outer loop
vertex 18.200 0.000 5.500
vertex 18.296 0.975 5.500
vertex 20.450 0.000 5.500
endloop
endfacet
facet normal 0.000 0.000 -1.000
outer loop
vertex 20.503 -0.536 5.500
vertex 18.581 -1.913 5.500
vertex 18.296 -0.975 5.500
endloop
endfacet
facet normal 0.000 0.000 -1.000
outer loop
vertex 20.659 1.052 5.500
vertex 18.296 0.975 5.500
vertex 18.581 1.913 5.500
endloop
endfacet
facet normal 0.000 0.000 -1.000
outer loop
vertex 20.659 -1.052 5.500
vertex 19.043 -2.778 5.500
vertex 18.581 -1.913 5.500
endloop
endfacet
facet normal 0.000 0.000 -1.000
outer loop
vertex 20.913 1.528 5.500
vertex 18.581 1.913 5.500
vertex 19.043 2.778 5.500
endloop
endfacet
facet normal 0.000 0.000 -1.000
outer loop
vertex 18.296 -0.975 5.500
vertex 20.450 0.000 5.500
vertex 20.503 -0.536 5.500
endloop
endfacet
facet normal 0.000 0.000 -1.000
outer loop
vertex 20.503 0.537 5.500
vertex 20.450 0.000 5.500
vertex 18.296 0.975 5.500
endloop
endfacet
facet normal 0.000 0.000 -1.000
outer loop
vertex 20.503 0.537 5.500
vertex 18.296 0.975 5.500
vertex 20.659 1.052 5.500
endloop
endfacet
facet normal 0.000 0.000 -1.000
outer loop
vertex 18.581 -1.913 5.500
vertex 20.503 -0.536 5.500
vertex 20.659 -1.052 5.500
endloop
endfacet
facet normal 0.000 0.000 -1.000
outer loop
vertex 19.664 -3.536 5.500
vertex 19.043 -2.778 5.500
vertex 21.255 -1.945 5.500
endloop
endfacet
facet normal 0.000 0.000 -1.000
outer loop
vertex 19.664 3.536 5.500
vertex 21.255 1.945 5.500
vertex 19.043 2.778 5.500
endloop
endfacet
facet normal 0.000 0.000 -1.000
outer loop
vertex 20.913 1.528 5.500
vertex 20.659 1.052 5.500
vertex 18.581 1.913 5.500
endloop
endfacet
facet normal 0.000 0.000 -1.000
outer loop
vertex 20.913 -1.528 5.500
vertex 19.043 -2.778 5.500
vertex 20.659 -1.052 5.500
endloop
endfacet
facet normal 0.000 0.000 -1.000
outer loop
vertex 19.043 -2.778 5.500
vertex 20.913 -1.528 5.500
vertex 21.255 -1.945 5.500
endloop
endfacet
facet normal 0.000 0.000 -1.000
outer loop
vertex 21.255 1.945 5.500
vertex 20.913 1.528 5.500
vertex 19.043 2.778 5.500
endloop
endfacet
facet normal 0.000 0.000 -1.000
outer loop
vertex 19.664 -3.536 5.500
vertex 21.255 -1.945 5.500
vertex 20.422 -4.157 5.500
endloop
endfacet
facet normal 0.000 0.000 -1.000
outer loop
vertex 20.422 4.157 5.500
vertex 21.255 1.945 5.500
vertex 19.664 3.536 5.500
endloop
endfacet
facet normal 0.000 -1.000 0.000
outer loop
vertex 6.715 -7.500 3.000
vertex 18.200 -7.500 17.017
vertex 5.715 -7.500 4.014
endloop
endfacet
facet normal 0.000 1.000 0.000
outer loop
vertex 5.715 7.500 4.014
vertex 18.200 7.500 17.017
vertex 6.715 7.500 3.000
endloop
endfacet
facet normal 0.471 -0.882 0.000
outer loop
vertex 21.262 4.609 15.711
vertex 20.422 4.157 5.500
vertex 21.287 4.619 5.500
endloop
endfacet
facet normal 0.634 0.773 0.000
outer loop
vertex 20.393 -4.136 15.949
vertex 20.422 -4.157 5.500
vertex 19.664 -3.536 5.500
endloop
endfacet
facet normal 0.634 -0.773 0.000
outer loop
vertex 20.393 4.136 15.950
vertex 19.664 3.536 5.500
vertex 20.422 4.157 5.500
endloop
endfacet
facet normal 0.773 0.634 0.000
outer loop
vertex 19.659 -3.530 16.226
vertex 19.664 -3.536 5.500
vertex 19.043 -2.778 5.500
endloop
endfacet
facet normal 0.773 -0.634 0.000
outer loop
vertex 19.658 3.530 16.226
vertex 19.043 2.778 5.500
vertex 19.664 3.536 5.500
endloop
endfacet
facet normal 0.882 0.471 0.000
outer loop
vertex 19.056 -2.795 16.512
vertex 19.043 -2.778 5.500
vertex 18.581 -1.913 5.500
endloop
endfacet
facet normal 0.882 -0.471 0.000
outer loop
vertex 19.055 2.795 16.512
vertex 18.581 1.913 5.500
vertex 19.043 2.778 5.500
endloop
endfacet
facet normal 0.957 0.290 0.000
outer loop
vertex 18.587 -1.930 16.772
vertex 18.581 -1.913 5.500
vertex 18.296 -0.975 5.500
endloop
endfacet
facet normal 0.957 -0.290 0.000
outer loop
vertex 18.587 1.929 16.772
vertex 18.296 0.975 5.500
vertex 18.581 1.913 5.500
endloop
endfacet
facet normal 0.995 0.098 0.000
outer loop
vertex 18.298 -0.977 16.952
vertex 18.296 -0.975 5.500
vertex 18.200 0.000 5.500
endloop
endfacet
facet normal 0.995 -0.098 0.000
outer loop
vertex 18.298 0.977 16.952
vertex 18.200 0.000 5.500
vertex 18.296 0.975 5.500
endloop
endfacet
facet normal 0.000 -1.000 0.000
outer loop
vertex 6.715 -7.500 3.000
vertex 23.200 -7.500 15.500
vertex 21.444 -7.500 15.673
endloop
endfacet
facet normal 0.000 1.000 0.000
outer loop
vertex 21.444 7.500 15.673
vertex 23.200 7.500 15.500
vertex 6.715 7.500 3.000
endloop
endfacet
facet normal 0.000 -1.000 0.000
outer loop
vertex 6.715 -7.500 3.000
vertex 21.444 -7.500 15.673
vertex 19.756 -7.500 16.185
endloop
endfacet
facet normal 0.000 1.000 0.000
outer loop
vertex 19.756 7.500 16.185
vertex 21.444 7.500 15.673
vertex 6.715 7.500 3.000
endloop
endfacet
facet normal 0.000 -1.000 0.000
outer loop
vertex 18.200 -7.500 17.017
vertex 6.715 -7.500 3.000
vertex 19.756 -7.500 16.185
endloop
endfacet
facet normal 0.000 1.000 0.000
outer loop
vertex 19.756 7.500 16.185
vertex 6.715 7.500 3.000
vertex 18.200 7.500 17.017
endloop
endfacet
facet normal 0.478 0.878 0.000
outer loop
vertex 20.393 -4.136 15.949
vertex 21.263 -4.609 15.711
vertex 20.422 -4.157 5.500
endloop
endfacet
facet normal 0.478 -0.878 0.000
outer loop
vertex 20.393 4.136 15.950
vertex 20.422 4.157 5.500
vertex 21.262 4.609 15.711
endloop
endfacet
facet normal 0.637 0.771 0.000
outer loop
vertex 19.664 -3.536 5.500
vertex 19.659 -3.530 16.226
vertex 20.393 -4.136 15.949
endloop
endfacet
facet normal 0.637 -0.771 0.000
outer loop
vertex 19.658 3.530 16.226
vertex 19.664 3.536 5.500
vertex 20.393 4.136 15.950
endloop
endfacet
facet normal 0.773 0.635 0.000
outer loop
vertex 19.659 -3.530 16.226
vertex 19.043 -2.778 5.500
vertex 19.056 -2.795 16.512
endloop
endfacet
facet normal 0.773 -0.634 0.000
outer loop
vertex 19.043 2.778 5.500
vertex 19.658 3.530 16.226
vertex 19.055 2.795 16.512
endloop
endfacet
facet normal 0.880 0.476 0.000
outer loop
vertex 18.581 -1.913 5.500
vertex 18.587 -1.930 16.772
vertex 19.056 -2.795 16.512
endloop
endfacet
facet normal 0.880 -0.476 0.000
outer loop
vertex 18.581 1.913 5.500
vertex 19.055 2.795 16.512
vertex 18.587 1.929 16.772
endloop
endfacet
facet normal 0.000 -1.000 0.000
outer loop
vertex 5.715 -7.500 4.014
vertex 18.200 -7.500 17.017
vertex 16.836 -7.500 18.136
endloop
endfacet
facet normal 0.000 1.000 0.000
outer loop
vertex 16.836 7.500 18.136
vertex 18.200 7.500 17.017
vertex 5.715 7.500 4.014
endloop
endfacet
facet normal 0.957 0.291 0.000
outer loop
vertex 18.298 -0.977 16.952
vertex 18.587 -1.930 16.772
vertex 18.296 -0.975 5.500
endloop
endfacet
facet normal 0.957 -0.291 0.000
outer loop
vertex 18.296 0.975 5.500
vertex 18.587 1.929 16.772
vertex 18.298 0.977 16.952
endloop
endfacet
facet normal 0.995 0.100 0.000
outer loop
vertex 18.200 0.000 5.500
vertex 18.200 0.000 17.017
vertex 18.298 -0.977 16.952
endloop
endfacet
facet normal 0.995 -0.099 0.000
outer loop
vertex 18.200 0.000 17.017
vertex 18.200 0.000 5.500
vertex 18.298 0.977 16.952
endloop
endfacet
facet normal 0.000 -1.000 0.000
outer loop
vertex 5.715 -7.500 4.014
vertex 16.836 -7.500 18.136
vertex 15.717 -7.500 19.500
endloop
endfacet
facet normal 0.000 1.000 0.000
outer loop
vertex 15.717 7.500 19.500
vertex 16.836 7.500 18.136
vertex 5.715 7.500 4.014
endloop
endfacet
facet normal 0.000 -1.000 0.000
outer loop
vertex 5.715 -7.500 4.014
vertex 15.717 -7.500 19.500
vertex 14.885 -7.500 21.056
endloop
endfacet
facet normal 0.000 1.000 0.000
outer loop
vertex 14.885 7.500 21.056
vertex 15.717 7.500 19.500
vertex 5.715 7.500 4.014
endloop
endfacet
facet normal 0.290 0.012 0.957
outer loop
vertex 19.756 -7.500 16.185
vertex 21.444 -7.500 15.673
vertex 20.393 -4.136 15.949
endloop
endfacet
facet normal 0.290 -0.012 0.957
outer loop
vertex 21.444 7.500 15.673
vertex 19.756 7.500 16.185
vertex 20.393 4.136 15.950
endloop
endfacet
facet normal 0.000 -1.000 0.000
outer loop
vertex 5.715 -7.500 4.014
vertex 14.885 -7.500 21.056
vertex 14.373 -7.500 22.744
endloop
endfacet
facet normal 0.000 1.000 0.000
outer loop
vertex 14.373 7.500 22.744
vertex 14.885 7.500 21.056
vertex 5.715 7.500 4.014
endloop
endfacet
facet normal 0.352 -0.001 0.936
outer loop
vertex 19.756 -7.500 16.185
vertex 20.393 -4.136 15.949
vertex 19.659 -3.530 16.226
endloop
endfacet
facet normal 0.352 0.001 0.936
outer loop
vertex 19.756 7.500 16.185
vertex 19.658 3.530 16.226
vertex 20.393 4.136 15.950
endloop
endfacet
facet normal 0.471 0.002 0.882
outer loop
vertex 18.200 -7.500 17.017
vertex 19.756 -7.500 16.185
vertex 19.659 -3.530 16.226
endloop
endfacet
facet normal 0.471 -0.002 0.882
outer loop
vertex 19.756 7.500 16.185
vertex 18.200 7.500 17.017
vertex 19.658 3.530 16.226
endloop
endfacet
facet normal 0.443 0.016 0.896
outer loop
vertex 19.056 -2.795 16.512
vertex 18.200 -7.500 17.017
vertex 19.659 -3.530 16.226
endloop
endfacet
facet normal 0.443 -0.016 0.896
outer loop
vertex 19.658 3.530 16.226
vertex 18.200 7.500 17.017
vertex 19.055 2.795 16.512
endloop
endfacet
facet normal 0.492 0.004 0.871
outer loop
vertex 18.587 -1.930 16.772
vertex 18.200 -7.500 17.017
vertex 19.056 -2.795 16.512
endloop
endfacet
facet normal 0.492 -0.004 0.871
outer loop
vertex 19.055 2.795 16.512
vertex 18.200 7.500 17.017
vertex 18.587 1.929 16.772
endloop
endfacet
facet normal 0.574 0.020 0.819
outer loop
vertex 18.298 -0.977 16.952
vertex 16.836 -7.500 18.136
vertex 18.587 -1.930 16.772
endloop
endfacet
facet normal 0.574 -0.020 0.819
outer loop
vertex 16.836 7.500 18.136
vertex 18.298 0.977 16.952
vertex 18.587 1.929 16.772
endloop
endfacet
facet normal 0.634 -0.010 0.773
outer loop
vertex 16.836 -7.500 18.136
vertex 18.200 -7.500 17.017
vertex 18.587 -1.930 16.772
endloop
endfacet
facet normal 0.634 0.010 0.773
outer loop
vertex 18.200 7.500 17.017
vertex 16.836 7.500 18.136
vertex 18.587 1.929 16.772
endloop
endfacet
facet normal 0.608 0.008 0.794
outer loop
vertex 18.298 -0.977 16.952
vertex 18.200 0.000 17.017
vertex 16.836 -7.500 18.136
endloop
endfacet
facet normal 0.608 -0.008 0.794
outer loop
vertex 16.836 7.500 18.136
vertex 18.200 0.000 17.017
vertex 18.298 0.977 16.952
endloop
endfacet
facet normal 0.772 -0.046 0.634
outer loop
vertex 18.200 0.000 17.017
vertex 15.717 -7.500 19.500
vertex 16.836 -7.500 18.136
endloop
endfacet
facet normal 0.772 0.046 0.634
outer loop
vertex 16.836 7.500 18.136
vertex 15.717 7.500 19.500
vertex 18.200 0.000 17.017
endloop
endfacet
facet normal 0.707 0.000 0.707
outer loop
vertex 15.717 -7.500 19.500
vertex 18.200 0.000 17.017
vertex 15.717 7.500 19.500
endloop
endfacet
facet normal 0.882 0.000 0.471
outer loop
vertex 15.717 7.500 19.500
vertex 14.885 7.500 21.056
vertex 15.717 -7.500 19.500
endloop
endfacet
facet normal 0.882 0.000 0.471
outer loop
vertex 14.885 -7.500 21.056
vertex 15.717 -7.500 19.500
vertex 14.885 7.500 21.056
endloop
endfacet
facet normal 0.957 0.000 0.290
outer loop
vertex 14.885 -7.500 21.056
vertex 14.885 7.500 21.056
vertex 14.373 7.500 22.744
endloop
endfacet
facet normal 0.957 0.000 0.290
outer loop
vertex 14.885 -7.500 21.056
vertex 14.373 7.500 22.744
vertex 14.373 -7.500 22.744
endloop
endfacet
facet normal 0.995 0.000 0.098
outer loop
vertex 14.373 7.500 22.744
vertex 14.200 7.500 24.500
vertex 14.373 -7.500 22.744
endloop
endfacet
facet normal 0.995 0.000 0.098
outer loop
vertex 14.373 -7.500 22.744
vertex 14.200 7.500 24.500
vertex 14.200 -7.500 24.500
endloop
endfacet
facet normal 0.995 0.000 -0.098
outer loop
vertex 14.200 7.500 24.500
vertex 14.373 7.500 26.256
vertex 14.200 -7.500 24.500
endloop
endfacet
facet normal 0.995 0.000 -0.098
outer loop
vertex 14.200 -7.500 24.500
vertex 14.373 7.500 26.256
vertex 14.373 -7.500 26.256
endloop
endfacet
facet normal 0.957 0.000 -0.290
outer loop
vertex 14.373 7.500 26.256
vertex 14.885 7.500 27.944
vertex 14.373 -7.500 26.256
endloop
endfacet
facet normal 0.957 0.000 -0.290
outer loop
vertex 14.885 7.500 27.944
vertex 14.885 -7.500 27.944
vertex 14.373 -7.500 26.256
endloop
endfacet
facet normal 0.000 -1.000 0.000
outer loop
vertex 14.373 -7.500 22.744
vertex 14.200 -7.500 24.500
vertex 6.186 -7.500 36.514
endloop
endfacet
facet normal 0.000 1.000 0.000
outer loop
vertex 6.186 7.500 36.514
vertex 14.200 7.500 24.500
vertex 14.373 7.500 22.744
endloop
endfacet
facet normal 0.882 0.000 -0.471
outer loop
vertex 14.885 7.500 27.944
vertex 15.717 7.500 29.500
vertex 14.885 -7.500 27.944
endloop
endfacet
facet normal 0.882 0.000 -0.471
outer loop
vertex 14.885 -7.500 27.944
vertex 15.717 7.500 29.500
vertex 15.717 -7.500 29.500
endloop
endfacet
facet normal 0.000 -1.000 0.000
outer loop
vertex 6.186 -7.500 36.514
vertex 14.200 -7.500 24.500
vertex 14.373 -7.500 26.256
endloop
endfacet
facet normal 0.000 1.000 0.000
outer loop
vertex 14.373 7.500 26.256
vertex 14.200 7.500 24.500
vertex 6.186 7.500 36.514
endloop
endfacet
facet normal 0.773 0.000 -0.634
outer loop
vertex 15.717 7.500 29.500
vertex 16.836 7.500 30.864
vertex 15.717 -7.500 29.500
endloop
endfacet
facet normal 0.000 -1.000 0.000
outer loop
vertex 14.373 -7.500 26.256
vertex 14.885 -7.500 27.944
vertex 6.186 -7.500 36.514
endloop
endfacet
facet normal 0.000 1.000 0.000
outer loop
vertex 6.186 7.500 36.514
vertex 14.885 7.500 27.944
vertex 14.373 7.500 26.256
endloop
endfacet
facet normal 0.773 0.000 -0.634
outer loop
vertex 15.717 -7.500 29.500
vertex 16.836 7.500 30.864
vertex 16.836 -7.500 30.864
endloop
endfacet
facet normal 0.634 0.000 -0.773
outer loop
vertex 16.836 -7.500 30.864
vertex 16.836 7.500 30.864
vertex 18.200 7.500 31.983
endloop
endfacet
facet normal 0.000 -1.000 0.000
outer loop
vertex 6.186 -7.500 36.514
vertex 14.885 -7.500 27.944
vertex 15.717 -7.500 29.500
endloop
endfacet
facet normal 0.000 1.000 0.000
outer loop
vertex 15.717 7.500 29.500
vertex 14.885 7.500 27.944
vertex 6.186 7.500 36.514
endloop
endfacet
facet normal 0.634 0.000 -0.773
outer loop
vertex 16.836 -7.500 30.864
vertex 18.200 7.500 31.983
vertex 18.200 -7.500 31.983
endloop
endfacet
facet normal 0.471 0.000 -0.882
outer loop
vertex 18.200 7.500 31.983
vertex 19.756 7.500 32.815
vertex 18.200 -7.500 31.983
endloop
endfacet
facet normal 0.471 0.000 -0.882
outer loop
vertex 18.200 -7.500 31.983
vertex 19.756 7.500 32.815
vertex 19.756 -7.500 32.815
endloop
endfacet
facet normal 0.000 -1.000 0.000
outer loop
vertex 7.186 -7.500 37.500
vertex 15.717 -7.500 29.500
vertex 16.836 -7.500 30.864
endloop
endfacet
facet normal 0.000 1.000 0.000
outer loop
vertex 16.836 7.500 30.864
vertex 15.717 7.500 29.500
vertex 7.186 7.500 37.500
endloop
endfacet
facet normal -0.290 0.000 0.957
outer loop
vertex 19.756 7.500 32.815
vertex 19.756 -7.500 32.815
vertex 21.444 7.500 33.327
endloop
endfacet
facet normal -0.290 0.000 0.957
outer loop
vertex 19.756 -7.500 32.815
vertex 21.444 -7.500 33.327
vertex 21.444 7.500 33.327
endloop
endfacet
facet normal 0.000 -1.000 0.000
outer loop
vertex 18.200 -7.500 31.983
vertex 7.186 -7.500 37.500
vertex 16.836 -7.500 30.864
endloop
endfacet
facet normal 0.000 1.000 0.000
outer loop
vertex 16.836 7.500 30.864
vertex 7.186 7.500 37.500
vertex 18.200 7.500 31.983
endloop
endfacet
facet normal 0.000 -1.000 0.000
outer loop
vertex 7.186 -7.500 37.500
vertex 18.200 -7.500 31.983
vertex 19.756 -7.500 32.815
endloop
endfacet
facet normal 0.000 1.000 0.000
outer loop
vertex 19.756 7.500 32.815
vertex 18.200 7.500 31.983
vertex 7.186 7.500 37.500
endloop
endfacet
facet normal 0.000 -1.000 0.000
outer loop
vertex 15.717 -7.500 29.500
vertex 7.186 -7.500 37.500
vertex 6.186 -7.500 36.514
endloop
endfacet
facet normal 0.000 1.000 0.000
outer loop
vertex 6.186 7.500 36.514
vertex 7.186 7.500 37.500
vertex 15.717 7.500 29.500
endloop
endfacet
facet normal 0.000 -1.000 0.000
outer loop
vertex 7.186 -7.500 37.500
vertex 19.756 -7.500 32.815
vertex 21.444 -7.500 33.327
endloop
endfacet
facet normal 0.000 1.000 0.000
outer loop
vertex 21.444 7.500 33.327
vertex 19.756 7.500 32.815
vertex 7.186 7.500 37.500
endloop
endfacet
facet normal 0.000 -1.000 0.000
outer loop
vertex 7.186 -7.500 37.500
vertex 21.444 -7.500 33.327
vertex 23.200 -7.500 33.500
endloop
endfacet
facet normal 0.000 1.000 0.000
outer loop
vertex 23.200 7.500 33.500
vertex 21.444 7.500 33.327
vertex 7.186 7.500 37.500
endloop
endfacet
facet normal 0.000 0.000 1.000
outer loop
vertex 7.186 7.500 37.500
vertex 7.186 -7.500 37.500
vertex 39.214 -7.500 37.500
endloop
endfacet
facet normal 0.773 0.634 0.000
outer loop
vertex 21.255 -1.945 5.500
vertex 20.913 -1.528 3.000
vertex 20.913 -1.528 5.500
endloop
endfacet
facet normal 0.773 -0.634 0.000
outer loop
vertex 20.913 1.528 5.500
vertex 20.913 1.528 3.000
vertex 21.255 1.945 3.000
endloop
endfacet
facet normal 0.000 0.000 -1.000
outer loop
vertex 21.672 -2.287 5.500
vertex 20.422 -4.157 5.500
vertex 21.255 -1.945 5.500
endloop
endfacet
facet normal 0.000 0.000 -1.000
outer loop
vertex 21.672 2.287 5.500
vertex 21.255 1.945 5.500
vertex 20.422 4.157 5.500
endloop
endfacet
facet normal 0.000 0.000 -1.000
outer loop
vertex 20.422 -4.157 5.500
vertex 21.672 -2.287 5.500
vertex 21.287 -4.619 5.500
endloop
endfacet
facet normal 0.773 0.634 0.000
outer loop
vertex 21.255 -1.945 5.500
vertex 21.255 -1.945 3.000
vertex 20.913 -1.528 3.000
endloop
endfacet
facet normal 0.773 -0.634 0.000
outer loop
vertex 21.255 1.945 3.000
vertex 21.255 1.945 5.500
vertex 20.913 1.528 5.500
endloop
endfacet
facet normal 0.000 0.000 -1.000
outer loop
vertex 22.148 2.541 5.500
vertex 20.422 4.157 5.500
vertex 21.287 4.619 5.500
endloop
endfacet
facet normal 0.634 0.773 0.000
outer loop
vertex 21.255 -1.945 3.000
vertex 21.255 -1.945 5.500
vertex 21.672 -2.287 5.500
endloop
endfacet
facet normal 0.634 -0.773 0.000
outer loop
vertex 21.255 1.945 5.500
vertex 21.255 1.945 3.000
vertex 21.672 2.287 3.000
endloop
endfacet
facet normal 0.000 0.000 -1.000
outer loop
vertex 20.422 4.157 5.500
vertex 22.148 2.541 5.500
vertex 21.672 2.287 5.500
endloop
endfacet
facet normal 0.634 0.773 0.000
outer loop
vertex 21.672 -2.287 5.500
vertex 21.672 -2.287 3.000
vertex 21.255 -1.945 3.000
endloop
endfacet
facet normal 0.634 -0.773 0.000
outer loop
vertex 21.255 1.945 5.500
vertex 21.672 2.287 3.000
vertex 21.672 2.287 5.500
endloop
endfacet
facet normal 0.000 0.000 -1.000
outer loop
vertex 21.287 -4.619 5.500
vertex 21.672 -2.287 5.500
vertex 22.148 -2.541 5.500
endloop
endfacet
facet normal 0.471 0.882 0.000
outer loop
vertex 22.148 -2.541 5.500
vertex 21.672 -2.287 3.000
vertex 21.672 -2.287 5.500
endloop
endfacet
facet normal 0.471 -0.882 0.000
outer loop
vertex 21.672 2.287 5.500
vertex 21.672 2.287 3.000
vertex 22.148 2.541 3.000
endloop
endfacet
facet normal 0.000 0.000 -1.000
outer loop
vertex 21.287 -4.619 5.500
vertex 22.148 -2.541 5.500
vertex 22.225 -4.904 5.500
endloop
endfacet
facet normal 0.000 0.000 -1.000
outer loop
vertex 22.148 2.541 5.500
vertex 21.287 4.619 5.500
vertex 22.225 4.904 5.500
endloop
endfacet
facet normal 0.471 0.882 0.000
outer loop
vertex 22.148 -2.541 5.500
vertex 22.148 -2.541 3.000
vertex 21.672 -2.287 3.000
endloop
endfacet
facet normal 0.471 -0.882 0.000
outer loop
vertex 22.148 2.541 3.000
vertex 22.148 2.541 5.500
vertex 21.672 2.287 5.500
endloop
endfacet
facet normal 0.290 0.957 0.000
outer loop
vertex 22.148 -2.541 3.000
vertex 22.148 -2.541 5.500
vertex 22.664 -2.697 5.500
endloop
endfacet
facet normal 0.290 -0.957 0.000
outer loop
vertex 22.148 2.541 5.500
vertex 22.148 2.541 3.000
vertex 22.664 2.697 3.000
endloop
endfacet
facet normal 0.000 0.000 -1.000
outer loop
vertex 22.148 -2.541 5.500
vertex 22.664 -2.697 5.500
vertex 22.225 -4.904 5.500
endloop
endfacet
facet normal 0.000 0.000 -1.000
outer loop
vertex 22.664 2.697 5.500
vertex 22.148 2.541 5.500
vertex 22.225 4.904 5.500
endloop
endfacet
facet normal 0.290 0.957 0.000
outer loop
vertex 22.664 -2.697 5.500
vertex 22.664 -2.697 3.000
vertex 22.148 -2.541 3.000
endloop
endfacet
facet normal 0.290 -0.957 0.000
outer loop
vertex 22.148 2.541 5.500
vertex 22.664 2.697 3.000
vertex 22.664 2.697 5.500
endloop
endfacet
facet normal 0.000 0.000 -1.000
outer loop
vertex 23.200 -2.750 5.500
vertex 22.225 -4.904 5.500
vertex 22.664 -2.697 5.500
endloop
endfacet
facet normal 0.000 0.000 -1.000
outer loop
vertex 22.225 4.904 5.500
vertex 23.200 5.000 5.500
vertex 22.664 2.697 5.500
endloop
endfacet
facet normal 0.098 0.995 0.000
outer loop
vertex 22.664 -2.697 5.500
vertex 23.200 -2.750 3.000
vertex 22.664 -2.697 3.000
endloop
endfacet
facet normal 0.098 -0.995 0.000
outer loop
vertex 22.664 2.697 5.500
vertex 22.664 2.697 3.000
vertex 23.200 2.750 3.000
endloop
endfacet
facet normal 0.000 0.000 -1.000
outer loop
vertex 22.225 -4.904 5.500
vertex 23.200 -2.750 5.500
vertex 23.200 -5.000 5.500
endloop
endfacet
facet normal 0.098 0.995 0.000
outer loop
vertex 22.664 -2.697 5.500
vertex 23.200 -2.750 5.500
vertex 23.200 -2.750 3.000
endloop
endfacet
facet normal 0.098 -0.995 0.000
outer loop
vertex 23.200 2.750 3.000
vertex 23.200 2.750 5.500
vertex 22.664 2.697 5.500
endloop
endfacet
facet normal 0.000 0.000 -1.000
outer loop
vertex 23.200 5.000 5.500
vertex 23.200 2.750 5.500
vertex 22.664 2.697 5.500
endloop
endfacet
facet normal 0.000 0.000 -1.000
outer loop
vertex 6.715 -7.500 3.000
vertex 23.200 -2.750 3.000
vertex 39.685 -7.500 3.000
endloop
endfacet
facet normal 0.000 0.000 -1.000
outer loop
vertex 23.200 2.750 3.000
vertex 6.715 7.500 3.000
vertex 39.685 7.500 3.000
endloop
endfacet
facet normal 0.000 0.000 -1.000
outer loop
vertex 23.200 -2.750 5.500
vertex 23.736 -2.697 5.500
vertex 23.200 -5.000 5.500
endloop
endfacet
facet normal 0.098 -0.995 0.000
outer loop
vertex 23.200 -2.750 3.000
vertex 23.736 -2.697 5.500
vertex 23.200 -2.750 5.500
endloop
endfacet
facet normal 0.098 0.995 0.000
outer loop
vertex 23.736 2.697 3.000
vertex 23.200 2.750 3.000
vertex 23.200 2.750 5.500
endloop
endfacet
facet normal 0.000 0.000 -1.000
outer loop
vertex 24.175 4.904 5.500
vertex 23.200 2.750 5.500
vertex 23.200 5.000 5.500
endloop
endfacet
facet normal 0.098 -0.995 0.000
outer loop
vertex 23.736 -2.697 5.500
vertex 23.200 -2.750 3.000
vertex 23.736 -2.697 3.000
endloop
endfacet
facet normal 0.098 0.995 0.000
outer loop
vertex 23.736 2.697 3.000
vertex 23.200 2.750 5.500
vertex 23.736 2.697 5.500
endloop
endfacet
facet normal 0.000 0.000 -1.000
outer loop
vertex 24.175 -4.904 5.500
vertex 23.200 -5.000 5.500
vertex 23.736 -2.697 5.500
endloop
endfacet
facet normal 0.000 0.000 -1.000
outer loop
vertex 23.200 2.750 5.500
vertex 24.175 4.904 5.500
vertex 23.736 2.697 5.500
endloop
endfacet
facet normal 0.290 -0.957 0.000
outer loop
vertex 24.252 -2.541 5.500
vertex 23.736 -2.697 5.500
vertex 23.736 -2.697 3.000
endloop
endfacet
facet normal 0.290 0.957 0.000
outer loop
vertex 23.736 2.697 5.500
vertex 24.252 2.541 3.000
vertex 23.736 2.697 3.000
endloop
endfacet
facet normal 0.000 0.000 -1.000
outer loop
vertex 23.736 -2.697 5.500
vertex 24.252 -2.541 5.500
vertex 24.175 -4.904 5.500
endloop
endfacet
facet normal 0.000 0.000 -1.000
outer loop
vertex 24.175 4.904 5.500
vertex 24.252 2.541 5.500
vertex 23.736 2.697 5.500
endloop
endfacet
facet normal 0.290 -0.957 0.000
outer loop
vertex 24.252 -2.541 5.500
vertex 23.736 -2.697 3.000
vertex 24.252 -2.541 3.000
endloop
endfacet
facet normal 0.290 0.957 0.000
outer loop
vertex 24.252 2.541 3.000
vertex 23.736 2.697 5.500
vertex 24.252 2.541 5.500
endloop
endfacet
facet normal 0.471 -0.882 0.000
outer loop
vertex 24.252 -2.541 3.000
vertex 24.728 -2.287 5.500
vertex 24.252 -2.541 5.500
endloop
endfacet
facet normal 0.471 0.882 0.000
outer loop
vertex 24.252 2.541 5.500
vertex 24.728 2.287 3.000
vertex 24.252 2.541 3.000
endloop
endfacet
facet normal 0.000 0.000 -1.000
outer loop
vertex 25.113 -4.619 5.500
vertex 24.175 -4.904 5.500
vertex 24.252 -2.541 5.500
endloop
endfacet
facet normal 0.000 0.000 -1.000
outer loop
vertex 25.113 4.619 5.500
vertex 24.252 2.541 5.500
vertex 24.175 4.904 5.500
endloop
endfacet
facet normal 0.471 -0.882 0.000
outer loop
vertex 24.728 -2.287 5.500
vertex 24.252 -2.541 3.000
vertex 24.728 -2.287 3.000
endloop
endfacet
facet normal 0.471 0.882 0.000
outer loop
vertex 24.252 2.541 5.500
vertex 24.728 2.287 5.500
vertex 24.728 2.287 3.000
endloop
endfacet
facet normal 0.000 0.000 -1.000
outer loop
vertex 24.728 2.287 5.500
vertex 24.252 2.541 5.500
vertex 25.113 4.619 5.500
endloop
endfacet
facet normal 0.634 -0.773 0.000
outer loop
vertex 25.145 -1.945 5.500
vertex 24.728 -2.287 5.500
vertex 24.728 -2.287 3.000
endloop
endfacet
facet normal 0.634 0.773 0.000
outer loop
vertex 24.728 2.287 5.500
vertex 25.145 1.945 3.000
vertex 24.728 2.287 3.000
endloop
endfacet
facet normal 0.000 0.000 -1.000
outer loop
vertex 25.978 -4.157 5.500
vertex 24.252 -2.541 5.500
vertex 24.728 -2.287 5.500
endloop
endfacet
facet normal 0.634 -0.773 0.000
outer loop
vertex 25.145 -1.945 5.500
vertex 24.728 -2.287 3.000
vertex 25.145 -1.945 3.000
endloop
endfacet
facet normal 0.634 0.773 0.000
outer loop
vertex 25.145 1.945 3.000
vertex 24.728 2.287 5.500
vertex 25.145 1.945 5.500
endloop
endfacet
facet normal 0.000 0.000 -1.000
outer loop
vertex 24.252 -2.541 5.500
vertex 25.978 -4.157 5.500
vertex 25.113 -4.619 5.500
endloop
endfacet
facet normal 0.773 -0.634 0.000
outer loop
vertex 25.145 -1.945 3.000
vertex 25.487 -1.528 5.500
vertex 25.145 -1.945 5.500
endloop
endfacet
facet normal 0.773 0.634 0.000
outer loop
vertex 25.145 1.945 5.500
vertex 25.487 1.528 3.000
vertex 25.145 1.945 3.000
endloop
endfacet
facet normal 0.000 0.000 -1.000
outer loop
vertex 25.978 4.157 5.500
vertex 24.728 2.287 5.500
vertex 25.113 4.619 5.500
endloop
endfacet
facet normal 0.000 0.000 -1.000
outer loop
vertex 25.145 -1.945 5.500
vertex 25.978 -4.157 5.500
vertex 24.728 -2.287 5.500
endloop
endfacet
facet normal 0.773 -0.634 0.000
outer loop
vertex 25.487 -1.528 5.500
vertex 25.145 -1.945 3.000
vertex 25.487 -1.528 3.000
endloop
endfacet
facet normal 0.773 0.634 0.000
outer loop
vertex 25.145 1.945 5.500
vertex 25.487 1.528 5.500
vertex 25.487 1.528 3.000
endloop
endfacet
facet normal 0.000 0.000 -1.000
outer loop
vertex 25.145 1.945 5.500
vertex 24.728 2.287 5.500
vertex 26.736 3.536 5.500
endloop
endfacet
facet normal 0.882 -0.471 0.000
outer loop
vertex 25.741 -1.052 5.500
vertex 25.487 -1.528 5.500
vertex 25.487 -1.528 3.000
endloop
endfacet
facet normal 0.882 0.471 0.000
outer loop
vertex 25.487 1.528 5.500
vertex 25.741 1.052 3.000
vertex 25.487 1.528 3.000
endloop
endfacet
facet normal 0.882 -0.471 0.000
outer loop
vertex 25.741 -1.052 5.500
vertex 25.487 -1.528 3.000
vertex 25.741 -1.052 3.000
endloop
endfacet
facet normal 0.882 0.471 0.000
outer loop
vertex 25.741 1.052 3.000
vertex 25.487 1.528 5.500
vertex 25.741 1.052 5.500
endloop
endfacet
facet normal 0.957 -0.290 0.000
outer loop
vertex 25.741 -1.052 3.000
vertex 25.897 -0.536 5.500
vertex 25.741 -1.052 5.500
endloop
endfacet
facet normal 0.957 0.290 0.000
outer loop
vertex 25.741 1.052 5.500
vertex 25.897 0.537 3.000
vertex 25.741 1.052 3.000
endloop
endfacet
facet normal 0.000 0.000 -1.000
outer loop
vertex 24.728 2.287 5.500
vertex 25.978 4.157 5.500
vertex 26.736 3.536 5.500
endloop
endfacet
facet normal 0.957 -0.290 0.000
outer loop
vertex 25.897 -0.536 5.500
vertex 25.741 -1.052 3.000
vertex 25.897 -0.536 3.000
endloop
endfacet
facet normal 0.957 0.290 0.000
outer loop
vertex 25.741 1.052 5.500
vertex 25.897 0.537 5.500
vertex 25.897 0.537 3.000
endloop
endfacet
facet normal 0.995 -0.098 0.000
outer loop
vertex 25.950 0.000 5.500
vertex 25.897 -0.536 5.500
vertex 25.897 -0.536 3.000
endloop
endfacet
facet normal 0.995 0.098 0.000
outer loop
vertex 25.897 0.537 5.500
vertex 25.950 0.000 3.000
vertex 25.897 0.537 3.000
endloop
endfacet
facet normal 0.995 -0.098 0.000
outer loop
vertex 25.950 0.000 5.500
vertex 25.897 -0.536 3.000
vertex 25.950 0.000 3.000
endloop
endfacet
facet normal 0.995 0.098 0.000
outer loop
vertex 25.950 0.000 3.000
vertex 25.897 0.537 5.500
vertex 25.950 0.000 5.500
endloop
endfacet
facet normal 0.000 0.000 -1.000
outer loop
vertex 25.145 -1.945 5.500
vertex 26.736 -3.536 5.500
vertex 25.978 -4.157 5.500
endloop
endfacet
facet normal 0.000 0.000 -1.000
outer loop
vertex 25.487 -1.528 5.500
vertex 27.357 -2.778 5.500
vertex 25.145 -1.945 5.500
endloop
endfacet
facet normal 0.000 0.000 -1.000
outer loop
vertex 25.487 1.528 5.500
vertex 25.145 1.945 5.500
vertex 27.357 2.778 5.500
endloop
endfacet
facet normal 0.000 0.000 -1.000
outer loop
vertex 27.357 -2.778 5.500
vertex 25.487 -1.528 5.500
vertex 25.741 -1.052 5.500
endloop
endfacet
facet normal 0.000 0.000 -1.000
outer loop
vertex 25.741 1.052 5.500
vertex 25.487 1.528 5.500
vertex 27.357 2.778 5.500
endloop
endfacet
facet normal 0.000 0.000 -1.000
outer loop
vertex 23.736 -2.697 3.000
vertex 39.685 -7.500 3.000
vertex 23.200 -2.750 3.000
endloop
endfacet
facet normal 0.000 0.000 -1.000
outer loop
vertex 23.736 2.697 3.000
vertex 23.200 2.750 3.000
vertex 39.685 7.500 3.000
endloop
endfacet
facet normal 0.000 0.000 -1.000
outer loop
vertex 23.736 -2.697 3.000
vertex 24.252 -2.541 3.000
vertex 39.685 -7.500 3.000
endloop
endfacet
facet normal 0.000 0.000 -1.000
outer loop
vertex 39.685 7.500 3.000
vertex 24.252 2.541 3.000
vertex 23.736 2.697 3.000
endloop
endfacet
facet normal 0.000 0.000 -1.000
outer loop
vertex 24.728 -2.287 3.000
vertex 39.685 -7.500 3.000
vertex 24.252 -2.541 3.000
endloop
endfacet
facet normal 0.000 0.000 -1.000
outer loop
vertex 24.728 2.287 3.000
vertex 24.252 2.541 3.000
vertex 39.685 7.500 3.000
endloop
endfacet
facet normal 0.000 0.000 -1.000
outer loop
vertex 39.685 -7.500 3.000
vertex 24.728 -2.287 3.000
vertex 25.145 -1.945 3.000
endloop
endfacet
facet normal 0.000 0.000 -1.000
outer loop
vertex 24.728 2.287 3.000
vertex 39.685 7.500 3.000
vertex 25.145 1.945 3.000
endloop
endfacet
facet normal 0.000 0.000 -1.000
outer loop
vertex 25.145 -1.945 3.000
vertex 25.487 -1.528 3.000
vertex 39.685 -7.500 3.000
endloop
endfacet
facet normal 0.000 0.000 -1.000
outer loop
vertex 25.487 1.528 3.000
vertex 25.145 1.945 3.000
vertex 39.685 7.500 3.000
endloop
endfacet
facet normal 0.000 0.000 -1.000
outer loop
vertex 25.487 -1.528 3.000
vertex 25.741 -1.052 3.000
vertex 39.685 -7.500 3.000
endloop
endfacet
facet normal 0.000 0.000 -1.000
outer loop
vertex 25.487 1.528 3.000
vertex 39.685 7.500 3.000
vertex 25.741 1.052 3.000
endloop
endfacet
facet normal 0.000 0.000 -1.000
outer loop
vertex 25.741 -1.052 3.000
vertex 25.897 -0.536 3.000
vertex 39.685 -7.500 3.000
endloop
endfacet
facet normal 0.000 0.000 -1.000
outer loop
vertex 25.897 0.537 3.000
vertex 25.741 1.052 3.000
vertex 39.685 7.500 3.000
endloop
endfacet
facet normal 0.000 0.000 -1.000
outer loop
vertex 25.897 -0.536 3.000
vertex 25.950 0.000 3.000
vertex 39.685 -7.500 3.000
endloop
endfacet
facet normal 0.000 0.000 -1.000
outer loop
vertex 25.897 0.537 3.000
vertex 39.685 7.500 3.000
vertex 25.950 0.000 3.000
endloop
endfacet
facet normal 0.000 0.000 -1.000
outer loop
vertex 39.685 -7.500 3.000
vertex 25.950 0.000 3.000
vertex 39.685 7.500 3.000
endloop
endfacet
facet normal 0.197 0.000 -0.980
outer loop
vertex 40.071 -7.500 3.077
vertex 39.685 -7.500 3.000
vertex 39.685 7.500 3.000
endloop
endfacet
facet normal 0.197 0.000 -0.980
outer loop
vertex 40.071 7.500 3.078
vertex 40.071 -7.500 3.077
vertex 39.685 7.500 3.000
endloop
endfacet
facet normal 0.000 -1.000 0.000
outer loop
vertex 39.685 -7.500 3.000
vertex 40.071 -7.500 3.077
vertex 40.398 -7.500 3.298
endloop
endfacet
facet normal 0.000 1.000 0.000
outer loop
vertex 40.398 7.500 3.298
vertex 40.071 7.500 3.078
vertex 39.685 7.500 3.000
endloop
endfacet
facet normal 0.560 0.000 -0.828
outer loop
vertex 40.398 -7.500 3.298
vertex 40.071 -7.500 3.077
vertex 40.071 7.500 3.078
endloop
endfacet
facet normal 0.000 -1.000 0.000
outer loop
vertex 40.613 -7.500 3.627
vertex 39.685 -7.500 3.000
vertex 40.398 -7.500 3.298
endloop
endfacet
facet normal 0.000 1.000 0.000
outer loop
vertex 40.398 7.500 3.298
vertex 39.685 7.500 3.000
vertex 40.613 7.500 3.627
endloop
endfacet
facet normal 0.560 0.000 -0.828
outer loop
vertex 40.071 7.500 3.078
vertex 40.398 7.500 3.298
vertex 40.398 -7.500 3.298
endloop
endfacet
facet normal 0.000 -1.000 0.000
outer loop
vertex 40.685 -7.500 4.014
vertex 39.685 -7.500 3.000
vertex 40.613 -7.500 3.627
endloop
endfacet
facet normal 0.000 1.000 0.000
outer loop
vertex 40.613 7.500 3.627
vertex 39.685 7.500 3.000
vertex 40.685 7.500 4.000
endloop
endfacet
facet normal 0.836 0.000 -0.548
outer loop
vertex 40.613 -7.500 3.627
vertex 40.398 -7.500 3.298
vertex 40.398 7.500 3.298
endloop
endfacet
facet normal 0.836 0.000 -0.548
outer loop
vertex 40.398 7.500 3.298
vertex 40.613 7.500 3.627
vertex 40.613 -7.500 3.627
endloop
endfacet
facet normal 0.982 0.000 -0.190
outer loop
vertex 40.613 7.500 3.627
vertex 40.685 7.500 4.000
vertex 40.613 -7.500 3.627
endloop
endfacet
facet normal 0.983 0.000 -0.183
outer loop
vertex 40.685 7.500 4.000
vertex 40.685 -7.500 4.014
vertex 40.613 -7.500 3.627
endloop
endfacet
facet normal 0.000 0.000 -1.000
outer loop
vertex 25.145 -1.945 5.500
vertex 27.357 -2.778 5.500
vertex 26.736 -3.536 5.500
endloop
endfacet
facet normal 0.000 0.000 -1.000
outer loop
vertex 25.145 1.945 5.500
vertex 26.736 3.536 5.500
vertex 27.357 2.778 5.500
endloop
endfacet
facet normal 0.000 0.000 -1.000
outer loop
vertex 27.819 1.913 5.500
vertex 25.897 0.537 5.500
vertex 25.741 1.052 5.500
endloop
endfacet
facet normal 0.000 0.000 -1.000
outer loop
vertex 25.897 -0.536 5.500
vertex 28.104 -0.975 5.500
vertex 25.741 -1.052 5.500
endloop
endfacet
facet normal 0.000 0.000 -1.000
outer loop
vertex 28.104 -0.975 5.500
vertex 25.897 -0.536 5.500
vertex 25.950 0.000 5.500
endloop
endfacet
facet normal 0.000 0.000 -1.000
outer loop
vertex 28.104 0.975 5.500
vertex 25.950 0.000 5.500
vertex 25.897 0.537 5.500
endloop
endfacet
facet normal 0.000 0.000 -1.000
outer loop
vertex 27.819 -1.913 5.500
vertex 27.357 -2.778 5.500
vertex 25.741 -1.052 5.500
endloop
endfacet
facet normal 0.000 0.000 -1.000
outer loop
vertex 27.819 1.913 5.500
vertex 25.741 1.052 5.500
vertex 27.357 2.778 5.500
endloop
endfacet
facet normal 0.000 0.000 -1.000
outer loop
vertex 25.741 -1.052 5.500
vertex 28.104 -0.975 5.500
vertex 27.819 -1.913 5.500
endloop
endfacet
facet normal 0.000 0.000 -1.000
outer loop
vertex 25.897 0.537 5.500
vertex 27.819 1.913 5.500
vertex 28.104 0.975 5.500
endloop
endfacet
facet normal 0.000 0.000 -1.000
outer loop
vertex 28.200 0.000 5.500
vertex 28.104 -0.975 5.500
vertex 25.950 0.000 5.500
endloop
endfacet
facet normal 0.000 0.000 -1.000
outer loop
vertex 25.950 0.000 5.500
vertex 28.104 0.975 5.500
vertex 28.200 0.000 5.500
endloop
endfacet
facet normal 0.000 -1.000 0.000
outer loop
vertex 6.715 -7.500 3.000
vertex 39.685 -7.500 3.000
vertex 23.200 -7.500 15.500
endloop
endfacet
facet normal 0.000 1.000 0.000
outer loop
vertex 23.200 7.500 15.500
vertex 39.685 7.500 3.000
vertex 6.715 7.500 3.000
endloop
endfacet
facet normal 0.000 1.000 0.000
outer loop
vertex 39.685 7.500 3.000
vertex 28.200 7.500 17.017
vertex 40.685 7.500 4.000
endloop
endfacet
facet normal 0.000 -1.000 0.000
outer loop
vertex 40.685 -7.500 4.014
vertex 28.200 -7.500 17.017
vertex 39.685 -7.500 3.000
endloop
endfacet
facet normal -0.098 -0.995 0.000
outer loop
vertex 22.225 -4.904 5.500
vertex 23.200 -5.000 5.500
vertex 23.200 -5.000 15.500
endloop
endfacet
facet normal -0.098 0.995 0.000
outer loop
vertex 23.200 5.000 15.500
vertex 23.200 5.000 5.500
vertex 22.225 4.904 5.500
endloop
endfacet
facet normal 0.098 -0.995 0.000
outer loop
vertex 23.200 -5.000 15.500
vertex 23.200 -5.000 5.500
vertex 24.175 -4.904 5.500
endloop
endfacet
facet normal 0.098 0.995 0.000
outer loop
vertex 24.175 4.904 5.500
vertex 23.200 5.000 5.500
vertex 23.200 5.000 15.500
endloop
endfacet
facet normal 0.290 0.957 0.000
outer loop
vertex 22.221 -4.902 15.555
vertex 22.225 -4.904 5.500
vertex 21.287 -4.619 5.500
endloop
endfacet
facet normal 0.290 0.957 0.000
outer loop
vertex 24.179 4.902 15.555
vertex 25.113 4.619 5.500
vertex 24.175 4.904 5.500
endloop
endfacet
facet normal 0.290 -0.957 0.000
outer loop
vertex 22.220 4.902 15.555
vertex 21.287 4.619 5.500
vertex 22.225 4.904 5.500
endloop
endfacet
facet normal 0.290 -0.957 0.000
outer loop
vertex 24.180 -4.902 15.555
vertex 24.175 -4.904 5.500
vertex 25.113 -4.619 5.500
endloop
endfacet
facet normal 0.471 0.882 0.000
outer loop
vertex 21.263 -4.609 15.711
vertex 21.287 -4.619 5.500
vertex 20.422 -4.157 5.500
endloop
endfacet
facet normal 0.471 0.882 0.000
outer loop
vertex 25.137 4.609 15.711
vertex 25.978 4.157 5.500
vertex 25.113 4.619 5.500
endloop
endfacet
facet normal 0.471 -0.882 0.000
outer loop
vertex 25.138 -4.609 15.711
vertex 25.113 -4.619 5.500
vertex 25.978 -4.157 5.500
endloop
endfacet
facet normal 0.634 0.773 0.000
outer loop
vertex 26.007 4.136 15.949
vertex 26.736 3.536 5.500
vertex 25.978 4.157 5.500
endloop
endfacet
facet normal 0.634 -0.773 0.000
outer loop
vertex 26.007 -4.136 15.950
vertex 25.978 -4.157 5.500
vertex 26.736 -3.536 5.500
endloop
endfacet
facet normal 0.773 0.634 0.000
outer loop
vertex 26.741 3.530 16.226
vertex 27.357 2.778 5.500
vertex 26.736 3.536 5.500
endloop
endfacet
facet normal 0.773 -0.634 0.000
outer loop
vertex 26.742 -3.529 16.226
vertex 26.736 -3.536 5.500
vertex 27.357 -2.778 5.500
endloop
endfacet
facet normal 0.882 0.471 0.000
outer loop
vertex 27.344 2.795 16.512
vertex 27.819 1.913 5.500
vertex 27.357 2.778 5.500
endloop
endfacet
facet normal 0.882 -0.471 0.000
outer loop
vertex 27.345 -2.795 16.512
vertex 27.357 -2.778 5.500
vertex 27.819 -1.913 5.500
endloop
endfacet
facet normal 0.957 0.290 0.000
outer loop
vertex 27.813 1.930 16.772
vertex 28.104 0.975 5.500
vertex 27.819 1.913 5.500
endloop
endfacet
facet normal 0.957 -0.290 0.000
outer loop
vertex 27.813 -1.929 16.772
vertex 27.819 -1.913 5.500
vertex 28.104 -0.975 5.500
endloop
endfacet
facet normal 0.995 0.098 0.000
outer loop
vertex 28.102 0.977 16.952
vertex 28.200 0.000 5.500
vertex 28.104 0.975 5.500
endloop
endfacet
facet normal 0.995 -0.098 0.000
outer loop
vertex 28.102 -0.977 16.952
vertex 28.104 -0.975 5.500
vertex 28.200 0.000 5.500
endloop
endfacet
facet normal 0.000 -1.000 0.000
outer loop
vertex 24.956 -7.500 15.673
vertex 23.200 -7.500 15.500
vertex 39.685 -7.500 3.000
endloop
endfacet
facet normal 0.000 1.000 0.000
outer loop
vertex 39.685 7.500 3.000
vertex 23.200 7.500 15.500
vertex 24.956 7.500 15.673
endloop
endfacet
facet normal 0.000 -1.000 0.000
outer loop
vertex 39.685 -7.500 3.000
vertex 26.644 -7.500 16.185
vertex 24.956 -7.500 15.673
endloop
endfacet
facet normal 0.000 1.000 0.000
outer loop
vertex 24.956 7.500 15.673
vertex 26.644 7.500 16.185
vertex 39.685 7.500 3.000
endloop
endfacet
facet normal 0.000 -1.000 0.000
outer loop
vertex 39.685 -7.500 3.000
vertex 28.200 -7.500 17.017
vertex 26.644 -7.500 16.185
endloop
endfacet
facet normal 0.000 1.000 0.000
outer loop
vertex 26.644 7.500 16.185
vertex 28.200 7.500 17.017
vertex 39.685 7.500 3.000
endloop
endfacet
facet normal -0.100 -0.995 0.000
outer loop
vertex 22.221 -4.902 15.555
vertex 22.225 -4.904 5.500
vertex 23.200 -5.000 15.500
endloop
endfacet
facet normal 0.100 0.995 0.000
outer loop
vertex 24.179 4.902 15.555
vertex 24.175 4.904 5.500
vertex 23.200 5.000 15.500
endloop
endfacet
facet normal -0.100 0.995 0.000
outer loop
vertex 22.220 4.902 15.555
vertex 23.200 5.000 15.500
vertex 22.225 4.904 5.500
endloop
endfacet
facet normal 0.100 -0.995 0.000
outer loop
vertex 24.180 -4.902 15.555
vertex 23.200 -5.000 15.500
vertex 24.175 -4.904 5.500
endloop
endfacet
facet normal 0.292 0.956 0.000
outer loop
vertex 21.287 -4.619 5.500
vertex 21.263 -4.609 15.711
vertex 22.221 -4.902 15.555
endloop
endfacet
facet normal 0.292 0.956 0.000
outer loop
vertex 25.113 4.619 5.500
vertex 24.179 4.902 15.555
vertex 25.137 4.609 15.711
endloop
endfacet
facet normal 0.292 -0.956 0.000
outer loop
vertex 22.220 4.902 15.555
vertex 21.262 4.609 15.711
vertex 21.287 4.619 5.500
endloop
endfacet
facet normal 0.292 -0.956 0.000
outer loop
vertex 24.180 -4.902 15.555
vertex 25.113 -4.619 5.500
vertex 25.138 -4.609 15.711
endloop
endfacet
facet normal 0.478 0.878 0.000
outer loop
vertex 26.007 4.136 15.949
vertex 25.978 4.157 5.500
vertex 25.137 4.609 15.711
endloop
endfacet
facet normal 0.478 -0.878 0.000
outer loop
vertex 26.007 -4.136 15.950
vertex 25.138 -4.609 15.711
vertex 25.978 -4.157 5.500
endloop
endfacet
facet normal 0.637 0.771 0.000
outer loop
vertex 26.736 3.536 5.500
vertex 26.007 4.136 15.949
vertex 26.741 3.530 16.226
endloop
endfacet
facet normal 0.637 -0.771 0.000
outer loop
vertex 26.742 -3.529 16.226
vertex 26.007 -4.136 15.950
vertex 26.736 -3.536 5.500
endloop
endfacet
facet normal 0.773 0.635 0.000
outer loop
vertex 26.741 3.530 16.226
vertex 27.344 2.795 16.512
vertex 27.357 2.778 5.500
endloop
endfacet
facet normal 0.773 -0.634 0.000
outer loop
vertex 27.357 -2.778 5.500
vertex 27.345 -2.795 16.512
vertex 26.742 -3.529 16.226
endloop
endfacet
facet normal 0.880 0.476 0.000
outer loop
vertex 27.819 1.913 5.500
vertex 27.344 2.795 16.512
vertex 27.813 1.930 16.772
endloop
endfacet
facet normal 0.880 -0.476 0.000
outer loop
vertex 27.819 -1.913 5.500
vertex 27.813 -1.929 16.772
vertex 27.345 -2.795 16.512
endloop
endfacet
facet normal 0.000 1.000 0.000
outer loop
vertex 28.200 7.500 17.017
vertex 29.564 7.500 18.136
vertex 40.685 7.500 4.000
endloop
endfacet
facet normal 0.000 -1.000 0.000
outer loop
vertex 40.685 -7.500 4.014
vertex 29.564 -7.500 18.136
vertex 28.200 -7.500 17.017
endloop
endfacet
facet normal 0.957 0.291 0.000
outer loop
vertex 28.102 0.977 16.952
vertex 28.104 0.975 5.500
vertex 27.813 1.930 16.772
endloop
endfacet
facet normal 0.957 -0.291 0.000
outer loop
vertex 28.104 -0.975 5.500
vertex 28.102 -0.977 16.952
vertex 27.813 -1.929 16.772
endloop
endfacet
facet normal 0.995 0.100 0.000
outer loop
vertex 28.200 0.000 5.500
vertex 28.102 0.977 16.952
vertex 28.200 0.000 17.017
endloop
endfacet
facet normal 0.995 -0.099 0.000
outer loop
vertex 28.200 0.000 17.017
vertex 28.102 -0.977 16.952
vertex 28.200 0.000 5.500
endloop
endfacet
facet normal 0.000 1.000 0.000
outer loop
vertex 29.564 7.500 18.136
vertex 30.683 7.500 19.500
vertex 40.685 7.500 4.000
endloop
endfacet
facet normal 0.000 -1.000 0.000
outer loop
vertex 40.685 -7.500 4.014
vertex 30.683 -7.500 19.500
vertex 29.564 -7.500 18.136
endloop
endfacet
facet normal 1.000 0.000 0.014
outer loop
vertex 40.214 -7.500 36.514
vertex 40.685 -7.500 4.014
vertex 40.685 7.500 4.000
endloop
endfacet
facet normal 0.000 1.000 0.000
outer loop
vertex 31.515 7.500 21.056
vertex 40.685 7.500 4.000
vertex 30.683 7.500 19.500
endloop
endfacet
facet normal 0.000 -1.000 0.000
outer loop
vertex 30.683 -7.500 19.500
vertex 40.685 -7.500 4.014
vertex 31.515 -7.500 21.056
endloop
endfacet
facet normal -0.056 0.000 -0.998
outer loop
vertex 22.221 -4.902 15.555
vertex 23.200 -5.000 15.500
vertex 23.200 -7.500 15.500
endloop
endfacet
facet normal 0.056 0.000 -0.998
outer loop
vertex 23.200 5.000 15.500
vertex 23.200 7.500 15.500
vertex 24.179 4.902 15.555
endloop
endfacet
facet normal -0.056 0.000 -0.998
outer loop
vertex 23.200 7.500 15.500
vertex 23.200 5.000 15.500
vertex 22.220 4.902 15.555
endloop
endfacet
facet normal 0.056 0.000 -0.998
outer loop
vertex 23.200 -5.000 15.500
vertex 24.180 -4.902 15.555
vertex 23.200 -7.500 15.500
endloop
endfacet
facet normal 0.098 0.016 0.995
outer loop
vertex 23.200 -7.500 15.500
vertex 22.221 -4.902 15.555
vertex 21.444 -7.500 15.673
endloop
endfacet
facet normal 0.098 0.016 -0.995
outer loop
vertex 24.956 7.500 15.673
vertex 24.179 4.902 15.555
vertex 23.200 7.500 15.500
endloop
endfacet
facet normal 0.098 -0.016 0.995
outer loop
vertex 23.200 7.500 15.500
vertex 21.444 7.500 15.673
vertex 22.220 4.902 15.555
endloop
endfacet
facet normal 0.098 -0.016 -0.995
outer loop
vertex 24.956 -7.500 15.673
vertex 23.200 -7.500 15.500
vertex 24.180 -4.902 15.555
endloop
endfacet
facet normal 0.160 -0.003 0.987
outer loop
vertex 22.221 -4.902 15.555
vertex 21.263 -4.609 15.711
vertex 21.444 -7.500 15.673
endloop
endfacet
facet normal 0.160 -0.003 -0.987
outer loop
vertex 25.137 4.609 15.711
vertex 24.179 4.902 15.555
vertex 24.956 7.500 15.673
endloop
endfacet
facet normal 0.160 0.003 0.987
outer loop
vertex 21.444 7.500 15.673
vertex 21.262 4.609 15.711
vertex 22.220 4.902 15.555
endloop
endfacet
facet normal 0.160 0.003 -0.987
outer loop
vertex 24.956 -7.500 15.673
vertex 24.180 -4.902 15.555
vertex 25.138 -4.609 15.711
endloop
endfacet
facet normal 0.267 0.004 0.964
outer loop
vertex 21.444 -7.500 15.673
vertex 21.263 -4.609 15.711
vertex 20.393 -4.136 15.949
endloop
endfacet
facet normal 0.267 0.004 -0.964
outer loop
vertex 25.137 4.609 15.711
vertex 24.956 7.500 15.673
vertex 26.007 4.136 15.949
endloop
endfacet
facet normal 0.267 -0.004 0.964
outer loop
vertex 21.262 4.609 15.711
vertex 21.444 7.500 15.673
vertex 20.393 4.136 15.950
endloop
endfacet
facet normal 0.267 -0.004 -0.964
outer loop
vertex 25.138 -4.609 15.711
vertex 26.007 -4.136 15.950
vertex 24.956 -7.500 15.673
endloop
endfacet
facet normal 0.000 1.000 0.000
outer loop
vertex 31.515 7.500 21.056
vertex 32.027 7.500 22.744
vertex 40.685 7.500 4.000
endloop
endfacet
facet normal 0.290 0.012 -0.957
outer loop
vertex 24.956 7.500 15.673
vertex 26.644 7.500 16.185
vertex 26.007 4.136 15.949
endloop
endfacet
facet normal 0.290 -0.012 -0.957
outer loop
vertex 24.956 -7.500 15.673
vertex 26.007 -4.136 15.950
vertex 26.644 -7.500 16.185
endloop
endfacet
facet normal 0.000 -1.000 0.000
outer loop
vertex 40.685 -7.500 4.014
vertex 32.027 -7.500 22.744
vertex 31.515 -7.500 21.056
endloop
endfacet
facet normal 0.352 -0.001 -0.936
outer loop
vertex 26.644 7.500 16.185
vertex 26.741 3.530 16.226
vertex 26.007 4.136 15.949
endloop
endfacet
facet normal 0.352 0.001 -0.936
outer loop
vertex 26.644 -7.500 16.185
vertex 26.007 -4.136 15.950
vertex 26.742 -3.529 16.226
endloop
endfacet
facet normal 0.471 0.002 -0.882
outer loop
vertex 26.741 3.530 16.226
vertex 26.644 7.500 16.185
vertex 28.200 7.500 17.017
endloop
endfacet
facet normal 0.471 -0.002 -0.882
outer loop
vertex 26.742 -3.529 16.226
vertex 28.200 -7.500 17.017
vertex 26.644 -7.500 16.185
endloop
endfacet
facet normal 0.443 0.016 -0.896
outer loop
vertex 28.200 7.500 17.017
vertex 27.344 2.795 16.512
vertex 26.741 3.530 16.226
endloop
endfacet
facet normal 0.443 -0.016 -0.896
outer loop
vertex 28.200 -7.500 17.017
vertex 26.742 -3.529 16.226
vertex 27.345 -2.795 16.512
endloop
endfacet
facet normal 0.492 0.004 -0.871
outer loop
vertex 27.813 1.930 16.772
vertex 27.344 2.795 16.512
vertex 28.200 7.500 17.017
endloop
endfacet
facet normal 0.492 -0.004 -0.871
outer loop
vertex 28.200 -7.500 17.017
vertex 27.345 -2.795 16.512
vertex 27.813 -1.929 16.772
endloop
endfacet
facet normal 0.574 0.020 -0.819
outer loop
vertex 29.564 7.500 18.136
vertex 28.102 0.977 16.952
vertex 27.813 1.930 16.772
endloop
endfacet
facet normal 0.574 -0.020 -0.819
outer loop
vertex 29.564 -7.500 18.136
vertex 27.813 -1.929 16.772
vertex 28.102 -0.977 16.952
endloop
endfacet
facet normal 0.634 -0.010 -0.773
outer loop
vertex 27.813 1.930 16.772
vertex 28.200 7.500 17.017
vertex 29.564 7.500 18.136
endloop
endfacet
facet normal 0.634 0.010 -0.773
outer loop
vertex 27.813 -1.929 16.772
vertex 29.564 -7.500 18.136
vertex 28.200 -7.500 17.017
endloop
endfacet
facet normal 0.608 0.008 -0.794
outer loop
vertex 29.564 7.500 18.136
vertex 28.200 0.000 17.017
vertex 28.102 0.977 16.952
endloop
endfacet
facet normal 0.608 -0.008 -0.794
outer loop
vertex 29.564 -7.500 18.136
vertex 28.102 -0.977 16.952
vertex 28.200 0.000 17.017
endloop
endfacet
facet normal 0.772 0.046 -0.634
outer loop
vertex 30.683 -7.500 19.500
vertex 29.564 -7.500 18.136
vertex 28.200 0.000 17.017
endloop
endfacet
facet normal 0.772 -0.046 -0.634
outer loop
vertex 28.200 0.000 17.017
vertex 29.564 7.500 18.136
vertex 30.683 7.500 19.500
endloop
endfacet
facet normal 0.707 0.000 -0.707
outer loop
vertex 30.683 -7.500 19.500
vertex 28.200 0.000 17.017
vertex 30.683 7.500 19.500
endloop
endfacet
facet normal 0.882 0.000 -0.471
outer loop
vertex 31.515 -7.500 21.056
vertex 30.683 -7.500 19.500
vertex 30.683 7.500 19.500
endloop
endfacet
facet normal 0.882 0.000 -0.471
outer loop
vertex 31.515 7.500 21.056
vertex 31.515 -7.500 21.056
vertex 30.683 7.500 19.500
endloop
endfacet
facet normal 0.000 1.000 0.000
outer loop
vertex 40.685 7.500 4.000
vertex 32.027 7.500 22.744
vertex 40.214 7.500 36.514
endloop
endfacet
facet normal 0.000 -1.000 0.000
outer loop
vertex 40.214 -7.500 36.514
vertex 32.027 -7.500 22.744
vertex 40.685 -7.500 4.014
endloop
endfacet
facet normal 0.957 0.000 -0.290
outer loop
vertex 31.515 -7.500 21.056
vertex 31.515 7.500 21.056
vertex 32.027 -7.500 22.744
endloop
endfacet
facet normal 0.957 0.000 -0.290
outer loop
vertex 32.027 -7.500 22.744
vertex 31.515 7.500 21.056
vertex 32.027 7.500 22.744
endloop
endfacet
facet normal 0.995 0.000 -0.098
outer loop
vertex 32.027 -7.500 22.744
vertex 32.027 7.500 22.744
vertex 32.200 7.500 24.500
endloop
endfacet
facet normal 0.995 0.000 -0.098
outer loop
vertex 32.027 -7.500 22.744
vertex 32.200 7.500 24.500
vertex 32.200 -7.500 24.500
endloop
endfacet
facet normal 0.995 0.000 0.098
outer loop
vertex 32.027 -7.500 26.256
vertex 32.200 -7.500 24.500
vertex 32.200 7.500 24.500
endloop
endfacet
facet normal 0.995 0.000 0.098
outer loop
vertex 32.027 7.500 26.256
vertex 32.027 -7.500 26.256
vertex 32.200 7.500 24.500
endloop
endfacet
facet normal 1.000 0.000 0.014
outer loop
vertex 40.685 7.500 4.000
vertex 40.214 7.500 36.514
vertex 40.214 -7.500 36.514
endloop
endfacet
facet normal 0.957 0.000 0.290
outer loop
vertex 31.515 -7.500 27.944
vertex 32.027 -7.500 26.256
vertex 32.027 7.500 26.256
endloop
endfacet
facet normal 0.957 0.000 0.290
outer loop
vertex 31.515 7.500 27.944
vertex 31.515 -7.500 27.944
vertex 32.027 7.500 26.256
endloop
endfacet
facet normal 0.000 -1.000 0.000
outer loop
vertex 32.027 -7.500 22.744
vertex 40.214 -7.500 36.514
vertex 32.200 -7.500 24.500
endloop
endfacet
facet normal 0.000 1.000 0.000
outer loop
vertex 32.200 7.500 24.500
vertex 40.214 7.500 36.514
vertex 32.027 7.500 22.744
endloop
endfacet
facet normal 0.882 0.000 0.471
outer loop
vertex 31.515 -7.500 27.944
vertex 31.515 7.500 27.944
vertex 30.683 -7.500 29.500
endloop
endfacet
facet normal 0.882 0.000 0.471
outer loop
vertex 30.683 7.500 29.500
vertex 30.683 -7.500 29.500
vertex 31.515 7.500 27.944
endloop
endfacet
facet normal 0.000 -1.000 0.000
outer loop
vertex 32.027 -7.500 26.256
vertex 32.200 -7.500 24.500
vertex 40.214 -7.500 36.514
endloop
endfacet
facet normal 0.000 1.000 0.000
outer loop
vertex 40.214 7.500 36.514
vertex 32.200 7.500 24.500
vertex 32.027 7.500 26.256
endloop
endfacet
facet normal 0.773 0.000 0.634
outer loop
vertex 29.564 -7.500 30.864
vertex 30.683 -7.500 29.500
vertex 30.683 7.500 29.500
endloop
endfacet
facet normal 0.000 -1.000 0.000
outer loop
vertex 40.214 -7.500 36.514
vertex 31.515 -7.500 27.944
vertex 32.027 -7.500 26.256
endloop
endfacet
facet normal 0.000 1.000 0.000
outer loop
vertex 32.027 7.500 26.256
vertex 31.515 7.500 27.944
vertex 40.214 7.500 36.514
endloop
endfacet
facet normal 0.773 0.000 0.634
outer loop
vertex 29.564 7.500 30.864
vertex 29.564 -7.500 30.864
vertex 30.683 7.500 29.500
endloop
endfacet
facet normal 0.634 0.000 0.773
outer loop
vertex 28.200 -7.500 31.983
vertex 29.564 -7.500 30.864
vertex 29.564 7.500 30.864
endloop
endfacet
facet normal 0.000 -1.000 0.000
outer loop
vertex 40.214 -7.500 36.514
vertex 30.683 -7.500 29.500
vertex 31.515 -7.500 27.944
endloop
endfacet
facet normal 0.000 1.000 0.000
outer loop
vertex 31.515 7.500 27.944
vertex 30.683 7.500 29.500
vertex 40.214 7.500 36.514
endloop
endfacet
facet normal 0.634 0.000 0.773
outer loop
vertex 28.200 7.500 31.983
vertex 28.200 -7.500 31.983
vertex 29.564 7.500 30.864
endloop
endfacet
facet normal 0.471 0.000 0.882
outer loop
vertex 28.200 -7.500 31.983
vertex 28.200 7.500 31.983
vertex 26.644 -7.500 32.815
endloop
endfacet
facet normal 0.471 0.000 0.882
outer loop
vertex 26.644 7.500 32.815
vertex 26.644 -7.500 32.815
vertex 28.200 7.500 31.983
endloop
endfacet
facet normal 0.000 -1.000 0.000
outer loop
vertex 39.214 -7.500 37.500
vertex 29.564 -7.500 30.864
vertex 30.683 -7.500 29.500
endloop
endfacet
facet normal 0.000 1.000 0.000
outer loop
vertex 30.683 7.500 29.500
vertex 29.564 7.500 30.864
vertex 39.214 7.500 37.500
endloop
endfacet
facet normal 0.290 0.000 0.957
outer loop
vertex 24.956 -7.500 33.327
vertex 26.644 -7.500 32.815
vertex 26.644 7.500 32.815
endloop
endfacet
facet normal 0.290 0.000 0.957
outer loop
vertex 24.956 7.500 33.327
vertex 24.956 -7.500 33.327
vertex 26.644 7.500 32.815
endloop
endfacet
facet normal -0.098 0.000 0.995
outer loop
vertex 21.444 7.500 33.327
vertex 21.444 -7.500 33.327
vertex 23.200 7.500 33.500
endloop
endfacet
facet normal 0.098 0.000 0.995
outer loop
vertex 23.200 -7.500 33.500
vertex 24.956 -7.500 33.327
vertex 24.956 7.500 33.327
endloop
endfacet
facet normal -0.098 0.000 0.995
outer loop
vertex 23.200 -7.500 33.500
vertex 23.200 7.500 33.500
vertex 21.444 -7.500 33.327
endloop
endfacet
facet normal 0.098 0.000 0.995
outer loop
vertex 23.200 7.500 33.500
vertex 23.200 -7.500 33.500
vertex 24.956 7.500 33.327
endloop
endfacet
facet normal 0.000 -1.000 0.000
outer loop
vertex 39.214 -7.500 37.500
vertex 28.200 -7.500 31.983
vertex 29.564 -7.500 30.864
endloop
endfacet
facet normal 0.000 1.000 0.000
outer loop
vertex 29.564 7.500 30.864
vertex 28.200 7.500 31.983
vertex 39.214 7.500 37.500
endloop
endfacet
facet normal 0.000 -1.000 0.000
outer loop
vertex 39.214 -7.500 37.500
vertex 26.644 -7.500 32.815
vertex 28.200 -7.500 31.983
endloop
endfacet
facet normal 0.000 1.000 0.000
outer loop
vertex 28.200 7.500 31.983
vertex 26.644 7.500 32.815
vertex 39.214 7.500 37.500
endloop
endfacet
facet normal 0.000 -1.000 0.000
outer loop
vertex 40.214 -7.500 36.514
vertex 39.214 -7.500 37.500
vertex 30.683 -7.500 29.500
endloop
endfacet
facet normal 0.000 1.000 0.000
outer loop
vertex 30.683 7.500 29.500
vertex 39.214 7.500 37.500
vertex 40.214 7.500 36.514
endloop
endfacet
facet normal 0.000 -1.000 0.000
outer loop
vertex 39.214 -7.500 37.500
vertex 24.956 -7.500 33.327
vertex 26.644 -7.500 32.815
endloop
endfacet
facet normal 0.000 1.000 0.000
outer loop
vertex 26.644 7.500 32.815
vertex 24.956 7.500 33.327
vertex 39.214 7.500 37.500
endloop
endfacet
facet normal 0.000 -1.000 0.000
outer loop
vertex 23.200 -7.500 33.500
vertex 24.956 -7.500 33.327
vertex 39.214 -7.500 37.500
endloop
endfacet
facet normal 0.000 1.000 0.000
outer loop
vertex 39.214 7.500 37.500
vertex 24.956 7.500 33.327
vertex 23.200 7.500 33.500
endloop
endfacet
facet normal 0.000 -1.000 0.000
outer loop
vertex 39.214 -7.500 37.500
vertex 7.186 -7.500 37.500
vertex 23.200 -7.500 33.500
endloop
endfacet
facet normal 0.000 1.000 0.000
outer loop
vertex 23.200 7.500 33.500
vertex 7.186 7.500 37.500
vertex 39.214 7.500 37.500
endloop
endfacet
facet normal 0.978 0.000 0.208
outer loop
vertex 40.214 7.500 36.514
vertex 40.134 -7.500 36.893
vertex 40.214 -7.500 36.514
endloop
endfacet
facet normal 0.978 0.000 0.208
outer loop
vertex 40.214 7.500 36.514
vertex 40.134 7.500 36.893
vertex 40.134 -7.500 36.893
endloop
endfacet
facet normal 0.000 -1.000 0.000
outer loop
vertex 39.214 -7.500 37.500
vertex 40.214 -7.500 36.514
vertex 40.134 -7.500 36.893
endloop
endfacet
facet normal 0.000 1.000 0.000
outer loop
vertex 40.134 7.500 36.893
vertex 40.214 7.500 36.514
vertex 39.214 7.500 37.500
endloop
endfacet
facet normal 0.826 0.000 0.563
outer loop
vertex 40.134 7.500 36.893
vertex 39.916 -7.500 37.212
vertex 40.134 -7.500 36.893
endloop
endfacet
facet normal 0.826 0.000 0.563
outer loop
vertex 40.134 7.500 36.893
vertex 39.916 7.500 37.212
vertex 39.916 -7.500 37.212
endloop
endfacet
facet normal 0.000 -1.000 0.000
outer loop
vertex 40.134 -7.500 36.893
vertex 39.916 -7.500 37.212
vertex 39.214 -7.500 37.500
endloop
endfacet
facet normal 0.000 1.000 0.000
outer loop
vertex 39.214 7.500 37.500
vertex 39.916 7.500 37.212
vertex 40.134 7.500 36.893
endloop
endfacet
facet normal 0.551 0.000 0.834
outer loop
vertex 39.916 -7.500 37.212
vertex 39.916 7.500 37.212
vertex 39.594 -7.500 37.425
endloop
endfacet
facet normal 0.551 0.000 0.834
outer loop
vertex 39.594 -7.500 37.425
vertex 39.916 7.500 37.212
vertex 39.594 7.500 37.425
endloop
endfacet
facet normal 0.000 -1.000 0.000
outer loop
vertex 39.594 -7.500 37.425
vertex 39.214 -7.500 37.500
vertex 39.916 -7.500 37.212
endloop
endfacet
facet normal 0.000 1.000 0.000
outer loop
vertex 39.916 7.500 37.212
vertex 39.214 7.500 37.500
vertex 39.594 7.500 37.425
endloop
endfacet
facet normal 0.193 0.000 0.981
outer loop
vertex 39.214 -7.500 37.500
vertex 39.594 -7.500 37.425
vertex 39.594 7.500 37.425
endloop
endfacet
facet normal 0.193 0.000 0.981
outer loop
vertex 39.594 7.500 37.425
vertex 39.214 7.500 37.500
vertex 39.214 -7.500 37.500
endloop
endfacet
facet normal 0.000 0.000 1.000
outer loop
vertex 39.214 -7.500 37.500
vertex 39.214 7.500 37.500
vertex 7.186 7.500 37.500
endloop
endfacet
endsolid
